<?xml version="1.0" encoding="UTF-8"?>
<!DOCTYPE svg PUBLIC "-//W3C//DTD SVG 1.1//EN" "http://www.w3.org/Graphics/SVG/1.1/DTD/svg11.dtd">
<svg xmlns="http://www.w3.org/2000/svg" version="1.1" width="500px" height="500px" style="shape-rendering:geometricPrecision; text-rendering:geometricPrecision; image-rendering:optimizeQuality; fill-rule:evenodd; clip-rule:evenodd" xmlns:xlink="http://www.w3.org/1999/xlink">
<g><path style="opacity:0.806" fill="#f4f4f4" d="M 256.5,106.5 C 252.833,106.5 249.167,106.5 245.5,106.5C 247.829,98.9692 244.995,94.6358 237,93.5C 230.026,94.4205 227.193,98.4205 228.5,105.5C 201.504,106.823 174.671,106.823 148,105.5C 147.536,106.094 147.369,106.761 147.5,107.5C 147.5,110.833 147.5,114.167 147.5,117.5C 147.5,118.833 147.5,120.167 147.5,121.5C 147.5,130.5 147.5,139.5 147.5,148.5C 145.833,148.5 144.167,148.5 142.5,148.5C 143.568,147.566 144.901,147.232 146.5,147.5C 146.666,139.16 146.5,130.827 146,122.5C 142.543,121.105 139.209,119.438 136,117.5C 132.081,110.843 132.748,104.843 138,99.5C 141.184,96.1556 145.018,94.9889 149.5,96C 153.247,99.4243 157.247,102.424 161.5,105C 179.5,105.667 197.5,105.667 215.5,105C 218.578,103.474 220.412,100.974 221,97.5C 224.204,94.6312 227.037,91.4646 229.5,88C 232.105,86.9787 234.772,86.1454 237.5,85.5C 242.711,86.7608 247.877,88.0941 253,89.5C 253.309,90.7659 253.809,91.9326 254.5,93C 253.062,97.7663 253.729,102.266 256.5,106.5 Z M 245.5,106.5 C 239.642,106.822 233.975,106.489 228.5,105.5C 227.193,98.4205 230.026,94.4205 237,93.5C 244.995,94.6358 247.829,98.9692 245.5,106.5 Z"/></g>
<g><path style="opacity:0.381" fill="#eee4fc" d="M 228.5,105.5 C 233.975,106.489 239.642,106.822 245.5,106.5C 249.167,106.5 252.833,106.5 256.5,106.5C 261.5,106.5 266.5,106.5 271.5,106.5C 271.5,109.5 271.5,112.5 271.5,115.5C 271.5,115.833 271.5,116.167 271.5,116.5C 271.167,116.5 270.833,116.5 270.5,116.5C 270.5,116.167 270.5,115.833 270.5,115.5C 270.5,112.833 270.5,110.167 270.5,107.5C 229.833,107.5 189.167,107.5 148.5,107.5C 148.167,107.5 147.833,107.5 147.5,107.5C 147.369,106.761 147.536,106.094 148,105.5C 174.671,106.823 201.504,106.823 228.5,105.5 Z"/></g>
<g><path style="opacity:1" fill="#9d8ac0" d="M 148.5,107.5 C 189.167,107.5 229.833,107.5 270.5,107.5C 270.5,110.167 270.5,112.833 270.5,115.5C 229.833,115.5 189.167,115.5 148.5,115.5C 148.5,112.833 148.5,110.167 148.5,107.5 Z"/></g>
<g><path style="opacity:1" fill="#9c84c8" d="M 239.5,108.5 C 210.338,109.498 181.005,109.831 151.5,109.5C 151.33,110.822 151.663,111.989 152.5,113C 185.498,113.5 218.498,113.667 251.5,113.5C 251.629,111.784 251.962,110.117 252.5,108.5C 257.179,108.334 261.845,108.501 266.5,109C 267.833,110.667 267.833,112.333 266.5,114C 227.501,114.5 188.501,114.667 149.5,114.5C 149.261,112.533 149.594,110.699 150.5,109C 180.165,108.5 209.831,108.333 239.5,108.5 Z"/></g>
<g><path style="opacity:1" fill="#9d80cf" d="M 239.5,108.5 C 243.833,108.5 248.167,108.5 252.5,108.5C 251.962,110.117 251.629,111.784 251.5,113.5C 218.498,113.667 185.498,113.5 152.5,113C 151.663,111.989 151.33,110.822 151.5,109.5C 181.005,109.831 210.338,109.498 239.5,108.5 Z"/></g>
<g><path style="opacity:1" fill="#d9cbee" d="M 147.5,107.5 C 147.833,107.5 148.167,107.5 148.5,107.5C 148.5,110.167 148.5,112.833 148.5,115.5C 189.167,115.5 229.833,115.5 270.5,115.5C 270.5,115.833 270.5,116.167 270.5,116.5C 229.572,117.494 188.572,117.827 147.5,117.5C 147.5,114.167 147.5,110.833 147.5,107.5 Z"/></g>
<g><path style="opacity:0.752" fill="#d7cde7" d="M 294.5,91.5 C 305.172,91.3335 315.839,91.5002 326.5,92C 327,92.5 327.5,93 328,93.5C 328.414,104.651 328.248,115.818 327.5,127C 316.787,127.189 306.12,127.689 295.5,128.5C 294.522,128.023 293.689,127.357 293,126.5C 292.333,115.5 292.333,104.5 293,93.5C 293.717,92.9558 294.217,92.2891 294.5,91.5 Z"/></g>
<g><path style="opacity:1" fill="#c5b7db" d="M 295.5,94.5 C 294.473,98.446 294.306,102.446 295,106.5C 296.297,107.784 297.464,107.617 298.5,106C 301.146,105.503 303.813,105.336 306.5,105.5C 306.167,107.5 305.833,109.5 305.5,111.5C 307.062,111.267 308.395,110.6 309.5,109.5C 307.914,112.257 306.914,115.257 306.5,118.5C 307.5,118.5 308.5,118.5 309.5,118.5C 310.428,114.638 311.928,110.971 314,107.5C 315.816,108.329 317.649,109.163 319.5,110C 318.167,111 316.833,112 315.5,113C 319.289,113.705 321.622,112.205 322.5,108.5C 323.833,108.5 325.167,108.5 326.5,108.5C 325.954,114.438 325.954,120.438 326.5,126.5C 317.833,126.5 309.167,126.5 300.5,126.5C 305.702,125.584 311.036,124.584 316.5,123.5C 318.709,123.604 320.876,123.937 323,124.5C 326.333,121.833 326.333,119.167 323,116.5C 320.451,117.344 317.951,117.011 315.5,115.5C 313.548,116.208 311.881,117.375 310.5,119C 308.167,119.667 305.833,119.667 303.5,119C 302.638,116.266 301.805,116.099 301,118.5C 299.171,116.844 297.837,114.844 297,112.5C 295.563,116.972 295.063,121.639 295.5,126.5C 294.883,126.389 294.383,126.056 294,125.5C 293.333,115.5 293.333,105.5 294,95.5C 294.383,94.944 294.883,94.6107 295.5,94.5 Z"/></g>
<g><path style="opacity:1" fill="#c4b4e4" d="M 300.5,126.5 C 298.833,126.5 297.167,126.5 295.5,126.5C 295.063,121.639 295.563,116.972 297,112.5C 297.837,114.844 299.171,116.844 301,118.5C 301.805,116.099 302.638,116.266 303.5,119C 305.833,119.667 308.167,119.667 310.5,119C 311.881,117.375 313.548,116.208 315.5,115.5C 317.951,117.011 320.451,117.344 323,116.5C 326.333,119.167 326.333,121.833 323,124.5C 320.876,123.937 318.709,123.604 316.5,123.5C 311.036,124.584 305.702,125.584 300.5,126.5 Z"/></g>
<g><path style="opacity:0.275" fill="#f3eafb" d="M 305.5,111.5 C 305.719,112.675 305.386,113.675 304.5,114.5C 295.01,110.732 295.343,108.232 305.5,107C 304.449,108.385 303.116,109.385 301.5,110C 302.745,110.791 304.078,111.291 305.5,111.5 Z"/></g>
<g><path style="opacity:0.937" fill="#dfd5eb" d="M 322.5,108.5 C 321.622,112.205 319.289,113.705 315.5,113C 316.833,112 318.167,111 319.5,110C 317.649,109.163 315.816,108.329 314,107.5C 311.928,110.971 310.428,114.638 309.5,118.5C 308.5,118.5 307.5,118.5 306.5,118.5C 306.914,115.257 307.914,112.257 309.5,109.5C 310.509,106.951 311.342,104.285 312,101.5C 313.011,100.663 314.178,100.33 315.5,100.5C 315.215,102.288 315.548,103.955 316.5,105.5C 319.482,104.253 321.482,105.253 322.5,108.5 Z"/></g>
<g><path style="opacity:1" fill="#c3b3e0" d="M 326.5,108.5 C 325.167,108.5 323.833,108.5 322.5,108.5C 321.482,105.253 319.482,104.253 316.5,105.5C 315.548,103.955 315.215,102.288 315.5,100.5C 314.178,100.33 313.011,100.663 312,101.5C 311.342,104.285 310.509,106.951 309.5,109.5C 308.395,110.6 307.062,111.267 305.5,111.5C 305.833,109.5 306.167,107.5 306.5,105.5C 303.813,105.336 301.146,105.503 298.5,106C 297.464,107.617 296.297,107.784 295,106.5C 294.306,102.446 294.473,98.446 295.5,94.5C 305.794,93.5729 316.128,93.2396 326.5,93.5C 326.5,98.5 326.5,103.5 326.5,108.5 Z"/></g>
<g><path style="opacity:0.85" fill="#cabedb" d="M 400.5,111.5 C 401.338,111.842 401.672,112.508 401.5,113.5C 401.284,123.838 400.951,134.171 400.5,144.5C 396.44,146.017 392.107,146.684 387.5,146.5C 380.959,146.413 374.626,145.747 368.5,144.5C 368.5,144.167 368.5,143.833 368.5,143.5C 367.341,133.342 367.175,123.008 368,112.5C 378.752,111.513 389.585,111.18 400.5,111.5 Z M 389.5,121.5 C 391.987,125.669 391.987,130.002 389.5,134.5C 389.398,130.447 389.398,126.113 389.5,121.5 Z"/></g>
<g><path style="opacity:0.373" fill="#e4dbec" d="M 400.5,111.5 C 389.585,111.18 378.752,111.513 368,112.5C 367.175,123.008 367.341,133.342 368.5,143.5C 368.5,143.833 368.5,144.167 368.5,144.5C 367.25,144.423 366.417,143.756 366,142.5C 365.101,132.107 365.434,121.773 367,111.5C 375.6,110.708 384.267,110.041 393,109.5C 395.821,109.408 398.321,110.074 400.5,111.5 Z"/></g>
<g><path style="opacity:0.992" fill="#cececf" d="M 147.5,121.5 C 153.167,121.5 158.833,121.5 164.5,121.5C 164.5,146.167 164.5,170.833 164.5,195.5C 159.167,195.5 153.833,195.5 148.5,195.5C 148.703,181.147 148.37,166.814 147.5,152.5C 146.167,152.5 144.833,152.5 143.5,152.5C 140.116,151.756 139.782,150.423 142.5,148.5C 144.167,148.5 145.833,148.5 147.5,148.5C 147.5,139.5 147.5,130.5 147.5,121.5 Z"/></g>
<g><path style="opacity:1" fill="#e4e4e3" d="M 270.5,116.5 C 270.833,116.5 271.167,116.5 271.5,116.5C 271.5,136.833 271.5,157.167 271.5,177.5C 253.477,177.235 235.477,177.569 217.5,178.5C 217.187,181.247 217.52,183.914 218.5,186.5C 219.183,186.863 219.85,187.196 220.5,187.5C 220.5,187.833 220.5,188.167 220.5,188.5C 220.5,191.167 220.5,193.833 220.5,196.5C 196.5,196.5 172.5,196.5 148.5,196.5C 147.883,196.389 147.383,196.056 147,195.5C 146.5,181.504 146.333,167.504 146.5,153.5C 145.209,153.737 144.209,153.404 143.5,152.5C 144.833,152.5 146.167,152.5 147.5,152.5C 148.37,166.814 148.703,181.147 148.5,195.5C 153.833,195.5 159.167,195.5 164.5,195.5C 164.5,170.833 164.5,146.167 164.5,121.5C 158.833,121.5 153.167,121.5 147.5,121.5C 147.5,120.167 147.5,118.833 147.5,117.5C 188.572,117.827 229.572,117.494 270.5,116.5 Z"/></g>
<g><path style="opacity:1" fill="#c0c0bf" d="M 202.5,126.5 C 217.515,126.167 232.515,126.501 247.5,127.5C 240,127.833 232.5,128.167 225,128.5C 217.136,128.497 209.636,127.831 202.5,126.5 Z"/></g>
<g><path style="opacity:0.359" fill="#e9e3f0" d="M 401.5,113.5 C 402.658,122.991 402.825,132.658 402,142.5C 401.722,143.416 401.222,144.082 400.5,144.5C 400.951,134.171 401.284,123.838 401.5,113.5 Z"/></g>
<g><path style="opacity:1" fill="#cecece" d="M 173.5,126.5 C 181.86,126.169 190.193,126.502 198.5,127.5C 198.291,128.086 197.957,128.586 197.5,129C 192.857,129.83 188.19,130.497 183.5,131C 201.466,132.383 219.466,132.883 237.5,132.5C 237.5,133.5 237.5,134.5 237.5,135.5C 217.156,135.833 196.822,135.5 176.5,134.5C 176.977,133.522 177.643,132.689 178.5,132C 176.41,130.412 174.743,128.578 173.5,126.5 Z"/></g>
<g><path style="opacity:1" fill="#c5b3e2" d="M 368.5,143.5 C 369.338,134.14 369.505,124.807 369,115.5C 373.145,112.021 377.478,111.688 382,114.5C 384.928,112.962 388.094,112.296 391.5,112.5C 394.089,112.527 396.589,112.861 399,113.5C 399.084,123.494 398.917,133.494 398.5,143.5C 388.5,143.5 378.5,143.5 368.5,143.5 Z M 389.5,121.5 C 389.398,126.113 389.398,130.447 389.5,134.5C 391.987,130.002 391.987,125.669 389.5,121.5 Z"/></g>
<g><path style="opacity:0.118" fill="#f8f1fb" d="M 376.5,120.5 C 377.873,120.343 379.207,120.51 380.5,121C 379.167,125.667 379.167,130.333 380.5,135C 380,135.167 379.5,135.333 379,135.5C 377.019,133.466 375.852,130.966 375.5,128C 376.322,125.566 376.656,123.066 376.5,120.5 Z"/></g>
<g><path style="opacity:0.906" fill="#d1c7e2" d="M 386.5,118.5 C 392.82,118.168 395.153,121.168 393.5,127.5C 394.565,133.946 391.898,136.946 385.5,136.5C 385.303,130.455 385.637,124.455 386.5,118.5 Z M 389.5,121.5 C 389.398,126.113 389.398,130.447 389.5,134.5C 391.987,130.002 391.987,125.669 389.5,121.5 Z"/></g>
<g><path style="opacity:1" fill="#bebebe" d="M 173.5,139.5 C 186.85,139.167 200.183,139.501 213.5,140.5C 206.833,140.833 200.167,141.167 193.5,141.5C 186.465,141.497 179.798,140.83 173.5,139.5 Z"/></g>
<g><path style="opacity:1" fill="#bfbfbf" d="M 219.5,139.5 C 228.857,139.168 238.19,139.502 247.5,140.5C 242.833,140.833 238.167,141.167 233.5,141.5C 228.449,141.493 223.783,140.827 219.5,139.5 Z"/></g>
<g><path style="opacity:1" fill="#bcbcbc" d="M 202.5,145.5 C 213.853,145.168 225.186,145.501 236.5,146.5C 224.848,147.666 213.181,147.833 201.5,147C 202.056,146.617 202.389,146.117 202.5,145.5 Z"/></g>
<g><path style="opacity:0.843" fill="#f3f3f2" d="M 271.5,115.5 C 272.167,126.674 272.833,138.007 273.5,149.5C 276.115,149.856 277.948,151.189 279,153.5C 279.393,158.201 279.393,162.868 279,167.5C 283.797,170.926 288.631,174.259 293.5,177.5C 286.167,177.5 278.833,177.5 271.5,177.5C 271.5,157.167 271.5,136.833 271.5,116.5C 271.5,116.167 271.5,115.833 271.5,115.5 Z"/></g>
<g><path style="opacity:0.675" fill="#e8e8e8" d="M 128.5,142.5 C 131.541,142.406 133.207,143.906 133.5,147C 135.676,147.163 137.509,147.996 139,149.5C 139.507,150.996 139.007,152.163 137.5,153C 134.586,153.133 132.253,154.3 130.5,156.5C 129.833,156.333 129.167,156.167 128.5,156C 126.698,154.173 124.532,153.006 122,152.5C 121.506,150.866 121.34,149.199 121.5,147.5C 124.947,147.385 127.28,145.719 128.5,142.5 Z"/></g>
<g><path style="opacity:1" fill="#bfbfbf" d="M 177.5,152.5 C 187.19,152.168 196.856,152.502 206.5,153.5C 201.667,153.833 196.833,154.167 192,154.5C 186.784,154.494 181.951,153.827 177.5,152.5 Z"/></g>
<g><path style="opacity:0.767" fill="#b9b9ba" d="M 372.5,158.5 C 371.154,156.208 371.488,154.208 373.5,152.5C 376,151.11 378.333,151.277 380.5,153C 378.833,153.333 377.167,153.667 375.5,154C 374.167,155.333 374.167,156.667 375.5,158C 377.085,158.085 378.418,158.251 379.5,158.5C 377.189,159.575 374.856,159.575 372.5,158.5 Z"/></g>
<g><path style="opacity:0.077" fill="#f2f3f3" d="M 395.5,155.5 C 391.044,155.104 390.71,154.104 394.5,152.5C 392.647,151.24 390.814,151.24 389,152.5C 388.135,154.888 388.968,156.388 391.5,157C 388.745,156.665 386.078,155.665 383.5,154C 384.938,153.781 386.271,153.281 387.5,152.5C 385.926,151.369 384.259,151.202 382.5,152C 380.979,155.017 381.979,156.85 385.5,157.5C 384.271,158.281 382.938,158.781 381.5,159C 385.832,159.583 390.165,160.083 394.5,160.5C 388.013,161.654 381.346,161.821 374.5,161C 373.619,160.292 372.953,159.458 372.5,158.5C 374.856,159.575 377.189,159.575 379.5,158.5C 378.418,158.251 377.085,158.085 375.5,158C 374.167,156.667 374.167,155.333 375.5,154C 377.167,153.667 378.833,153.333 380.5,153C 378.333,151.277 376,151.11 373.5,152.5C 373.611,151.883 373.944,151.383 374.5,151C 377.89,150.754 381.223,150.254 384.5,149.5C 388.094,150.426 391.76,150.759 395.5,150.5C 395.5,152.167 395.5,153.833 395.5,155.5 Z"/></g>
<g><path style="opacity:0.582" fill="#e4e4e4" d="M 105.5,138.5 C 110.408,137.874 114.908,138.874 119,141.5C 119.684,142.784 119.517,143.951 118.5,145C 114.477,144.45 110.477,144.617 106.5,145.5C 102.884,151.55 104.384,155.55 111,157.5C 114.104,154.881 116.937,155.048 119.5,158C 114.057,163.096 108.057,163.763 101.5,160C 96.756,154.622 96.256,148.789 100,142.5C 102.015,141.303 103.849,139.97 105.5,138.5 Z"/></g>
<g><path style="opacity:0.776" fill="#bdc0c0" d="M 395.5,155.5 C 396.93,157.455 396.597,159.121 394.5,160.5C 390.165,160.083 385.832,159.583 381.5,159C 382.938,158.781 384.271,158.281 385.5,157.5C 381.979,156.85 380.979,155.017 382.5,152C 384.259,151.202 385.926,151.369 387.5,152.5C 386.271,153.281 384.938,153.781 383.5,154C 386.078,155.665 388.745,156.665 391.5,157C 388.968,156.388 388.135,154.888 389,152.5C 390.814,151.24 392.647,151.24 394.5,152.5C 390.71,154.104 391.044,155.104 395.5,155.5 Z"/></g>
<g><path style="opacity:1" fill="#d7d7d7" d="M 240.5,165.5 C 226.5,165.5 212.5,165.5 198.5,165.5C 199.463,164.637 199.463,163.97 198.5,163.5C 197.167,164.5 195.833,165.5 194.5,166.5C 187.532,167.497 180.532,167.83 173.5,167.5C 173.5,166.5 173.5,165.5 173.5,164.5C 176.346,164.97 178.679,164.137 180.5,162C 179.062,161.781 177.729,161.281 176.5,160.5C 188.152,159.334 199.819,159.167 211.5,160C 210.289,160.893 210.289,161.726 211.5,162.5C 212.429,161.311 212.762,159.978 212.5,158.5C 224.167,158.5 235.833,158.5 247.5,158.5C 247.5,159.5 247.5,160.5 247.5,161.5C 237.494,161.334 227.494,161.5 217.5,162C 218.623,163.044 219.956,163.71 221.5,164C 228.013,164.172 234.347,164.672 240.5,165.5 Z"/></g>
<g><path style="opacity:1" fill="#bcbcbd" d="M 198.5,165.5 C 212.5,165.5 226.5,165.5 240.5,165.5C 242.924,165.192 245.257,165.526 247.5,166.5C 239.333,166.833 231.167,167.167 223,167.5C 214.472,167.498 206.305,166.831 198.5,165.5 Z"/></g>
<g><path style="opacity:1" fill="#c6c6c6" d="M 177.5,172.5 C 188.52,172.168 199.52,172.501 210.5,173.5C 205,173.833 199.5,174.167 194,174.5C 188.124,174.495 182.624,173.829 177.5,172.5 Z"/></g>
<g><path style="opacity:1" fill="#eee7f6" d="M 271.5,177.5 C 278.833,177.5 286.167,177.5 293.5,177.5C 321.135,178.475 348.801,178.808 376.5,178.5C 377.492,178.328 378.158,178.662 378.5,179.5C 325.833,179.5 273.167,179.5 220.5,179.5C 220.5,182.167 220.5,184.833 220.5,187.5C 219.85,187.196 219.183,186.863 218.5,186.5C 217.52,183.914 217.187,181.247 217.5,178.5C 235.477,177.569 253.477,177.235 271.5,177.5 Z"/></g>
<g><path style="opacity:1" fill="#bdbdbd" d="M 177.5,178.5 C 189.851,178.168 202.185,178.501 214.5,179.5C 208.333,179.833 202.167,180.167 196,180.5C 189.462,180.496 183.295,179.83 177.5,178.5 Z"/></g>
<g><path style="opacity:1" fill="#9683b9" d="M 381.5,180.5 C 381.5,182.833 381.5,185.167 381.5,187.5C 328.167,187.5 274.833,187.5 221.5,187.5C 221.5,185.167 221.5,182.833 221.5,180.5C 274.833,180.5 328.167,180.5 381.5,180.5 Z"/></g>
<g><path style="opacity:1" fill="#9c80d2" d="M 224.5,182.5 C 270.36,182.847 316.36,182.847 362.5,182.5C 362.5,183.5 362.5,184.5 362.5,185.5C 321.997,185.168 281.663,185.501 241.5,186.5C 235.5,186.5 229.5,186.5 223.5,186.5C 223.232,184.901 223.566,183.568 224.5,182.5 Z"/></g>
<g><path style="opacity:1" fill="#9e86cc" d="M 224.5,182.5 C 275.997,181.501 327.664,181.168 379.5,181.5C 379.5,183.167 379.5,184.833 379.5,186.5C 333.5,186.5 287.5,186.5 241.5,186.5C 281.663,185.501 321.997,185.168 362.5,185.5C 362.5,184.5 362.5,183.5 362.5,182.5C 316.36,182.847 270.36,182.847 224.5,182.5 Z"/></g>
<g><path style="opacity:1" fill="#b4a6ca" d="M 378.5,179.5 C 379.791,179.263 380.791,179.596 381.5,180.5C 328.167,180.5 274.833,180.5 221.5,180.5C 221.5,182.833 221.5,185.167 221.5,187.5C 274.833,187.5 328.167,187.5 381.5,187.5C 381.5,187.833 381.5,188.167 381.5,188.5C 381.167,188.5 380.833,188.5 380.5,188.5C 335.833,188.5 291.167,188.5 246.5,188.5C 237.833,188.5 229.167,188.5 220.5,188.5C 220.5,188.167 220.5,187.833 220.5,187.5C 220.5,184.833 220.5,182.167 220.5,179.5C 273.167,179.5 325.833,179.5 378.5,179.5 Z"/></g>
<g><path style="opacity:1" fill="#eee8f5" d="M 246.5,188.5 C 291.167,188.5 335.833,188.5 380.5,188.5C 376.925,190.571 373.092,190.904 369,189.5C 366.5,190 364,190.5 361.5,191C 322.989,191.795 284.655,191.295 246.5,189.5C 246.5,189.167 246.5,188.833 246.5,188.5 Z"/></g>
<g><path style="opacity:0.999" fill="#e8eae9" d="M 380.5,188.5 C 380.833,188.5 381.167,188.5 381.5,188.5C 381.633,198.959 381.3,209.459 380.5,220C 382.066,234.665 383.066,249.331 383.5,264C 381.57,269.874 380.903,276.04 381.5,282.5C 381.5,283.167 381.167,283.5 380.5,283.5C 343.5,283.5 306.5,283.5 269.5,283.5C 258.29,283.729 246.956,284.062 235.5,284.5C 230.588,284.579 225.921,283.912 221.5,282.5C 229.5,282.5 237.5,282.5 245.5,282.5C 245.169,251.329 245.502,220.329 246.5,189.5C 284.655,191.295 322.989,191.795 361.5,191C 364,190.5 366.5,190 369,189.5C 373.092,190.904 376.925,190.571 380.5,188.5 Z"/></g>
<g><path style="opacity:1" fill="#494c4f" d="M 276.5,206.5 C 296.511,206.167 316.511,206.5 336.5,207.5C 326.5,207.833 316.5,208.167 306.5,208.5C 296.144,208.499 286.144,207.832 276.5,206.5 Z"/></g>
<g><path style="opacity:0.944" fill="#f2f2f2" d="M 381.5,282.5 C 380.903,276.04 381.57,269.874 383.5,264C 383.066,249.331 382.066,234.665 380.5,220C 381.3,209.459 381.633,198.959 381.5,188.5C 381.5,188.167 381.5,187.833 381.5,187.5C 381.5,185.167 381.5,182.833 381.5,180.5C 380.791,179.596 379.791,179.263 378.5,179.5C 378.158,178.662 377.492,178.328 376.5,178.5C 377.973,175.59 380.14,174.923 383,176.5C 382.459,187.135 382.459,197.801 383,208.5C 387.064,211.915 391.564,212.415 396.5,210C 398.563,205.782 401.896,204.448 406.5,206C 409.715,209.062 412.715,212.396 415.5,216C 419.167,217 422.833,218 426.5,219C 428.297,220.594 429.297,222.594 429.5,225C 428.503,229.138 428.336,233.304 429,237.5C 430.193,239.605 431.86,241.272 434,242.5C 435.82,248.702 433.653,252.535 427.5,254C 423.105,257.357 421.272,261.857 422,267.5C 420.115,270.379 417.449,272.045 414,272.5C 409.862,271.503 405.696,271.336 401.5,272C 395.269,278.021 389.436,277.521 384,270.5C 382.971,274.573 382.138,278.573 381.5,282.5 Z M 395.5,227.5 C 408.091,226.926 413.591,232.926 412,245.5C 409.474,251.592 404.807,254.592 398,254.5C 386.859,252.789 382.859,246.456 386,235.5C 387.961,231.287 391.127,228.62 395.5,227.5 Z"/></g>
<g><path style="opacity:1" fill="#9d92b5" d="M 271.5,206.5 C 271.5,207.167 271.5,207.833 271.5,208.5C 239.5,207.833 239.5,207.167 271.5,206.5 Z"/></g>
<g><path style="opacity:1" fill="#eae5f4" d="M 271.5,206.5 C 239.5,207.167 239.5,207.833 271.5,208.5C 269.257,209.812 266.59,210.478 263.5,210.5C 257.834,210.908 252.167,211.241 246.5,211.5C 246.335,208.482 246.502,205.482 247,202.5C 254.498,203.867 262.332,204.7 270.5,205C 271.056,205.383 271.389,205.883 271.5,206.5 Z"/></g>
<g><path style="opacity:1" fill="#cdc4de" d="M 315.5,213.5 C 316.209,212.596 317.209,212.263 318.5,212.5C 335.833,212.5 353.167,212.5 370.5,212.5C 370.5,213.5 370.5,214.5 370.5,215.5C 369.5,215.5 368.5,215.5 367.5,215.5C 350.532,213.514 333.199,212.847 315.5,213.5 Z"/></g>
<g><path style="opacity:1" fill="#c8cacd" d="M 310.5,213.5 C 306.285,215.436 301.619,216.103 296.5,215.5C 281.485,215.833 266.485,215.499 251.5,214.5C 271.155,213.5 290.822,213.167 310.5,213.5 Z"/></g>
<g><path style="opacity:1" fill="#4e5255" d="M 287.5,219.5 C 275.88,221.479 263.88,222.146 251.5,221.5C 250.957,221.44 250.624,221.107 250.5,220.5C 262.815,219.501 275.149,219.168 287.5,219.5 Z"/></g>
<g><path style="opacity:0.99" fill="#e5e0ee" d="M 82.5,185.5 C 80.323,188.02 78.323,190.686 76.5,193.5C 77.0542,203.865 77.8876,214.198 79,224.5C 80.4382,225.718 82.1049,226.385 84,226.5C 88.36,226.144 92.36,225.811 96,225.5C 97.5589,226.029 99.0589,226.696 100.5,227.5C 102.56,225.804 104.893,224.637 107.5,224C 108.5,222.333 109.5,220.667 110.5,219C 112.107,219.019 113.774,219.185 115.5,219.5C 115.439,221.592 114.439,223.092 112.5,224C 120.524,226.834 122.524,224.5 118.5,217C 119.22,209.06 119.386,200.893 119,192.5C 116.667,191.587 114.834,190.087 113.5,188C 104.588,187.184 95.755,187.35 87,188.5C 86.015,187.186 84.8484,186.186 83.5,185.5C 92.9911,184.342 102.658,184.175 112.5,185C 115.973,185.319 118.806,186.819 121,189.5C 122.622,200.736 122.955,212.069 122,223.5C 121.727,225.329 120.893,226.829 119.5,228C 117.045,229.312 114.545,230.478 112,231.5C 111.517,232.448 111.351,233.448 111.5,234.5C 108.401,234.908 106.067,233.741 104.5,231C 97.5,230.667 90.5,230.333 83.5,230C 77.8911,228.724 74.7244,225.224 74,219.5C 73.3333,211.167 73.3333,202.833 74,194.5C 74.6826,189.32 77.516,186.32 82.5,185.5 Z"/></g>
<g><path style="opacity:0.999" fill="#e2d7f1" d="M 82.5,185.5 C 82.8333,185.5 83.1667,185.5 83.5,185.5C 84.8484,186.186 86.015,187.186 87,188.5C 95.755,187.35 104.588,187.184 113.5,188C 114.834,190.087 116.667,191.587 119,192.5C 119.386,200.893 119.22,209.06 118.5,217C 122.524,224.5 120.524,226.834 112.5,224C 114.439,223.092 115.439,221.592 115.5,219.5C 113.774,219.185 112.107,219.019 110.5,219C 109.5,220.667 108.5,222.333 107.5,224C 104.893,224.637 102.56,225.804 100.5,227.5C 99.0589,226.696 97.5589,226.029 96,225.5C 92.36,225.811 88.36,226.144 84,226.5C 82.1049,226.385 80.4382,225.718 79,224.5C 77.8876,214.198 77.0542,203.865 76.5,193.5C 78.323,190.686 80.323,188.02 82.5,185.5 Z"/></g>
<g><path style="opacity:1" fill="#9f89c4" d="M 87.5,215.5 C 86.2101,214.942 85.3768,213.942 85,212.5C 82.7566,204.726 84.9233,198.559 91.5,194C 99.5747,191.108 106.075,193.274 111,200.5C 114.278,214.899 108.444,221.732 93.5,221C 91.0038,219.669 89.0038,217.836 87.5,215.5 Z"/></g>
<g><path style="opacity:1" fill="#9d80d0" d="M 87.5,215.5 C 86.4886,211.888 86.3219,208.221 87,204.5C 89.7937,202.581 91.2937,199.914 91.5,196.5C 104.742,192.915 110.908,197.915 110,211.5C 106.863,217.928 101.696,220.428 94.5,219C 92.9326,216.259 90.5993,215.092 87.5,215.5 Z"/></g>
<g><path style="opacity:1" fill="#c7cacc" d="M 324.5,224.5 C 336.648,225.884 348.981,226.884 361.5,227.5C 348.846,228.666 336.18,228.833 323.5,228C 322.333,227.5 321.5,226.667 321,225.5C 320.768,226.737 320.268,227.737 319.5,228.5C 311.903,226.533 303.903,225.866 295.5,226.5C 305.01,225.697 314.677,225.03 324.5,224.5 Z"/></g>
<g><path style="opacity:1" fill="#e6e6ec" d="M 370.5,219.5 C 357.456,218.853 344.789,219.52 332.5,221.5C 331.167,221.5 329.833,221.5 328.5,221.5C 327.41,222.857 326.076,223.857 324.5,224.5C 314.677,225.03 305.01,225.697 295.5,226.5C 295.5,227.167 295.5,227.833 295.5,228.5C 300.747,229.352 306.747,229.852 313.5,230C 309.579,230.203 305.745,230.703 302,231.5C 298.779,231.055 295.279,231.055 291.5,231.5C 290.803,229.615 289.803,229.282 288.5,230.5C 276.879,229.687 265.213,229.187 253.5,229C 251.627,227.915 249.96,226.582 248.5,225C 249.5,224.5 250.5,224 251.5,223.5C 263.684,225.101 276.351,225.601 289.5,225C 282.833,224.667 276.167,224.333 269.5,224C 275.167,223.667 280.833,223.333 286.5,223C 274.659,222.831 262.993,222.331 251.5,221.5C 263.88,222.146 275.88,221.479 287.5,219.5C 291.066,219.208 294.066,217.874 296.5,215.5C 301.619,216.103 306.285,215.436 310.5,213.5C 311.833,213.5 313.167,213.5 314.5,213.5C 331.802,215.486 349.468,216.153 367.5,215.5C 368.5,215.5 369.5,215.5 370.5,215.5C 370.5,214.5 370.5,213.5 370.5,212.5C 353.167,212.5 335.833,212.5 318.5,212.5C 333.328,211.669 348.328,211.169 363.5,211C 366.764,209.935 370.097,209.602 373.5,210C 372.134,213.786 372.468,217.452 374.5,221C 373.135,220.857 371.802,220.357 370.5,219.5 Z"/></g>
<g><path style="opacity:1" fill="#4b4e54" d="M 268.5,226.5 C 275.863,226.169 283.197,226.503 290.5,227.5C 286.833,227.833 283.167,228.167 279.5,228.5C 275.435,228.489 271.768,227.822 268.5,226.5 Z"/></g>
<g><path style="opacity:1" fill="#9c93b8" d="M 328.5,221.5 C 316.482,221.832 304.482,221.499 292.5,220.5C 298.5,220.167 304.5,219.833 310.5,219.5C 316.872,219.504 322.872,220.171 328.5,221.5 Z"/></g>
<g><path style="opacity:1" fill="#4b5058" d="M 370.5,219.5 C 358.211,221.48 345.544,222.147 332.5,221.5C 344.789,219.52 357.456,218.853 370.5,219.5 Z"/></g>
<g><path style="opacity:1" fill="#aa9ec7" d="M 314.5,213.5 C 314.833,213.5 315.167,213.5 315.5,213.5C 333.199,212.847 350.532,213.514 367.5,215.5C 349.468,216.153 331.802,215.486 314.5,213.5 Z"/></g>
<g><path style="opacity:1" fill="#4b4f51" d="M 295.5,226.5 C 303.903,225.866 311.903,226.533 319.5,228.5C 311.5,228.5 303.5,228.5 295.5,228.5C 295.5,227.833 295.5,227.167 295.5,226.5 Z"/></g>
<g><path style="opacity:1" fill="#c6c6cb" d="M 250.5,232.5 C 260.855,232.168 271.188,232.501 281.5,233.5C 276.333,233.833 271.167,234.167 266,234.5C 260.454,234.495 255.288,233.828 250.5,232.5 Z"/></g>
<g><path style="opacity:0.267" fill="#93999e" d="M 125.5,231.5 C 122.167,235.5 118.5,239.167 114.5,242.5C 117.167,237.833 120.833,234.167 125.5,231.5 Z"/></g>
<g><path style="opacity:1" fill="#293339" d="M 138.5,225.5 C 170.573,223.073 187.573,237.907 189.5,270C 188.619,285.079 184.953,299.412 178.5,313C 174.687,315.026 171.02,314.86 167.5,312.5C 166.833,312.5 166.167,312.5 165.5,312.5C 163.473,312.662 161.473,312.495 159.5,312C 156.309,309.574 152.975,307.407 149.5,305.5C 149.953,304.542 150.619,303.708 151.5,303C 157.249,302.852 162.915,302.186 168.5,301C 174.746,295.331 178.413,288.497 179.5,280.5C 179.5,279.167 179.5,277.833 179.5,276.5C 181.84,272.144 181.84,267.811 179.5,263.5C 181.552,262.947 181.885,261.947 180.5,260.5C 180.573,258.973 179.906,257.973 178.5,257.5C 177.909,256.849 177.243,256.182 176.5,255.5C 177.868,254.406 179.035,254.74 180,256.5C 180.72,254.888 180.554,253.388 179.5,252C 172.057,253.982 165.724,252.149 160.5,246.5C 155.949,250.86 150.949,251.527 145.5,248.5C 144.893,248.624 144.56,248.957 144.5,249.5C 142.766,251.322 141.766,253.655 141.5,256.5C 140.667,256.833 139.833,257.167 139,257.5C 137,256.833 135,256.167 133,255.5C 131.301,255.387 130.134,256.053 129.5,257.5C 127.983,257.489 126.816,256.823 126,255.5C 125.694,257.906 124.861,260.073 123.5,262C 126.956,269.598 130.289,277.264 133.5,285C 131.783,288.925 131.116,293.092 131.5,297.5C 131.167,297.5 130.833,297.5 130.5,297.5C 126.865,296.886 123.198,296.552 119.5,296.5C 119.771,292.849 118.437,291.515 115.5,292.5C 113.95,293.72 112.284,293.72 110.5,292.5C 107.567,289.67 105.567,286.337 104.5,282.5C 104.5,281.833 104.5,281.167 104.5,280.5C 104.211,274.409 104.545,268.409 105.5,262.5C 106.693,262.03 107.36,261.03 107.5,259.5C 107.997,257.182 108.33,254.848 108.5,252.5C 110.408,251.514 111.408,249.848 111.5,247.5C 111.75,245.326 112.75,243.659 114.5,242.5C 118.5,239.167 122.167,235.5 125.5,231.5C 129.144,228.18 133.478,226.18 138.5,225.5 Z"/></g>
<g><path style="opacity:1" fill="#4c5053" d="M 287.5,239.5 C 303.847,239.167 320.18,239.501 336.5,240.5C 328.333,240.833 320.167,241.167 312,241.5C 303.472,241.498 295.305,240.831 287.5,239.5 Z"/></g>
<g><path style="opacity:1" fill="#4b5053" d="M 340.5,239.5 C 350.522,239.168 360.522,239.501 370.5,240.5C 365.5,240.833 360.5,241.167 355.5,241.5C 350.119,241.494 345.119,240.828 340.5,239.5 Z"/></g>
<g><path style="opacity:1" fill="#e5e2f4" d="M 259.5,243.5 C 257.278,243.178 255.444,243.845 254,245.5C 252.89,243.963 251.39,243.297 249.5,243.5C 249.461,242.417 249.127,241.417 248.5,240.5C 249.52,238.076 251.186,236.409 253.5,235.5C 264.432,237.049 275.432,238.215 286.5,239C 285.743,240.512 284.743,241.846 283.5,243C 275.507,243.5 267.507,243.666 259.5,243.5 Z"/></g>
<g><path style="opacity:1" fill="#a29bbb" d="M 251.5,239.5 C 262.187,239.168 272.854,239.501 283.5,240.5C 278.167,240.833 272.833,241.167 267.5,241.5C 261.789,241.495 256.456,240.828 251.5,239.5 Z"/></g>
<g><path style="opacity:1" fill="#3d4146" d="M 361.5,245.5 C 361.5,246.167 361.5,246.833 361.5,247.5C 314.833,246.833 314.833,246.167 361.5,245.5 Z"/></g>
<g><path style="opacity:1" fill="#e0e2e4" d="M 249.5,243.5 C 251.39,243.297 252.89,243.963 254,245.5C 255.444,243.845 257.278,243.178 259.5,243.5C 287.016,245.996 314.849,245.996 343,243.5C 347.833,243.667 352.667,243.833 357.5,244C 359.058,244.21 360.391,244.71 361.5,245.5C 314.833,246.167 314.833,246.833 361.5,247.5C 349.34,248.331 337.007,248.831 324.5,249C 338.198,249.22 351.865,249.72 365.5,250.5C 365.172,253.004 363.838,254.838 361.5,256C 348.66,256.827 335.993,256.66 323.5,255.5C 335.012,255.828 346.346,255.495 357.5,254.5C 359.483,254.843 360.817,254.176 361.5,252.5C 354.867,251.17 347.867,250.503 340.5,250.5C 333.133,250.503 326.133,251.17 319.5,252.5C 313.781,254.225 307.781,255.059 301.5,255C 296.167,255.167 290.833,255.333 285.5,255.5C 279.659,255.453 273.992,254.786 268.5,253.5C 267.554,253.987 266.554,254.32 265.5,254.5C 261.914,254.132 258.581,253.132 255.5,251.5C 256.771,249.171 258.771,248.005 261.5,248C 261.043,247.586 260.709,247.086 260.5,246.5C 257.901,245.969 255.235,245.802 252.5,246C 251.058,245.623 250.058,244.79 249.5,243.5 Z"/></g>
<g><path style="opacity:1" fill="#e6e2f5" d="M 361.5,252.5 C 348.816,252.168 336.149,252.501 323.5,253.5C 334.814,254.499 346.147,254.832 357.5,254.5C 346.346,255.495 335.012,255.828 323.5,255.5C 322.167,255.5 320.833,255.5 319.5,255.5C 319.5,254.5 319.5,253.5 319.5,252.5C 326.133,251.17 333.133,250.503 340.5,250.5C 347.867,250.503 354.867,251.17 361.5,252.5 Z"/></g>
<g><path style="opacity:0.549" fill="#747e81" d="M 111.5,247.5 C 111.408,249.848 110.408,251.514 108.5,252.5C 108.75,250.326 109.75,248.659 111.5,247.5 Z"/></g>
<g><path style="opacity:1" fill="#d2b085" d="M 178.5,257.5 C 177.5,257.5 176.5,257.5 175.5,257.5C 175.5,256.167 175.5,254.833 175.5,253.5C 173.801,253.62 172.135,253.954 170.5,254.5C 167.434,251.971 164.434,251.971 161.5,254.5C 159.584,251.444 156.918,250.778 153.5,252.5C 151.052,251.527 148.385,251.194 145.5,251.5C 145.599,254.237 145.265,256.904 144.5,259.5C 144.167,259.5 143.833,259.5 143.5,259.5C 142.957,259.44 142.624,259.107 142.5,258.5C 144.13,255.724 144.797,252.724 144.5,249.5C 144.56,248.957 144.893,248.624 145.5,248.5C 150.949,251.527 155.949,250.86 160.5,246.5C 165.724,252.149 172.057,253.982 179.5,252C 180.554,253.388 180.72,254.888 180,256.5C 179.035,254.74 177.868,254.406 176.5,255.5C 177.243,256.182 177.909,256.849 178.5,257.5 Z"/></g>
<g><path style="opacity:1" fill="#674423" d="M 161.5,254.5 C 159.156,253.328 156.823,253.328 154.5,254.5C 153.702,254.043 153.369,253.376 153.5,252.5C 156.918,250.778 159.584,251.444 161.5,254.5 Z"/></g>
<g><path style="opacity:1" fill="#495052" d="M 270.5,252.5 C 278.196,252.169 285.862,252.503 293.5,253.5C 289.667,253.833 285.833,254.167 282,254.5C 277.771,254.49 273.938,253.823 270.5,252.5 Z"/></g>
<g><path style="opacity:1" fill="#a59abf" d="M 361.5,252.5 C 360.817,254.176 359.483,254.843 357.5,254.5C 346.147,254.832 334.814,254.499 323.5,253.5C 336.149,252.501 348.816,252.168 361.5,252.5 Z"/></g>
<g><path style="opacity:0.884" fill="#f1f1f2" d="M 105.5,261.5 C 105.5,261.833 105.5,262.167 105.5,262.5C 104.545,268.409 104.211,274.409 104.5,280.5C 103.523,277.713 103.19,274.713 103.5,271.5C 100.278,271.15 97.1118,270.483 94,269.5C 82.6013,270.644 79.268,276.311 84,286.5C 87.292,289.487 91.1254,290.653 95.5,290C 98.2791,288.278 101.279,287.111 104.5,286.5C 104.5,285.167 104.5,283.833 104.5,282.5C 105.567,286.337 107.567,289.67 110.5,292.5C 108.956,292.297 107.622,291.63 106.5,290.5C 105.895,291.587 106.228,292.754 107.5,294C 110.817,294.498 114.15,294.665 117.5,294.5C 116.167,295.167 114.833,295.833 113.5,296.5C 112.833,296.5 112.167,296.5 111.5,296.5C 97.9016,296.095 92.9016,302.428 96.5,315.5C 96.6495,316.552 96.4828,317.552 96,318.5C 91.6985,323.509 87.1985,328.175 82.5,332.5C 85.697,326.823 89.8637,321.823 95,317.5C 94.5104,313.504 93.6771,309.504 92.5,305.5C 90.5675,306.52 88.5675,306.687 86.5,306C 83.5372,304.039 80.8706,301.706 78.5,299C 75.5571,298.058 72.7238,296.892 70,295.5C 69.2189,294.271 68.7189,292.938 68.5,291.5C 70.3452,286.895 69.5119,282.895 66,279.5C 64.4779,274.544 66.1446,271.211 71,269.5C 72.6667,265.5 74.3333,261.5 76,257.5C 77.1939,256.57 78.5272,255.903 80,255.5C 84.8391,257.465 89.0058,256.631 92.5,253C 99.9057,251.733 103.739,254.9 104,262.5C 104.383,261.944 104.883,261.611 105.5,261.5 Z"/></g>
<g><path style="opacity:1" fill="#e1b37d" d="M 153.5,252.5 C 153.369,253.376 153.702,254.043 154.5,254.5C 156.823,253.328 159.156,253.328 161.5,254.5C 164.434,251.971 167.434,251.971 170.5,254.5C 172.135,253.954 173.801,253.62 175.5,253.5C 175.5,254.833 175.5,256.167 175.5,257.5C 176.5,257.5 177.5,257.5 178.5,257.5C 179.906,257.973 180.573,258.973 180.5,260.5C 180.631,261.376 180.298,262.043 179.5,262.5C 174.522,260.418 170.689,261.751 168,266.5C 167.103,259.592 163.27,256.425 156.5,257C 154.277,258.733 151.944,260.233 149.5,261.5C 147.578,261.199 145.912,260.533 144.5,259.5C 145.265,256.904 145.599,254.237 145.5,251.5C 148.385,251.194 151.052,251.527 153.5,252.5 Z"/></g>
<g><path style="opacity:0.999" fill="#d1d2d2" d="M 220.5,188.5 C 229.167,188.5 237.833,188.5 246.5,188.5C 246.5,188.833 246.5,189.167 246.5,189.5C 245.502,220.329 245.169,251.329 245.5,282.5C 237.5,282.5 229.5,282.5 221.5,282.5C 220.566,281.432 220.232,280.099 220.5,278.5C 220.5,251.167 220.5,223.833 220.5,196.5C 220.5,193.833 220.5,191.167 220.5,188.5 Z"/></g>
<g><path style="opacity:0.987" fill="#c6c7c7" d="M 227.5,206.5 C 231.833,206.5 236.167,206.5 240.5,206.5C 240.481,208.06 240.148,209.56 239.5,211C 240.707,212.3 241.374,213.8 241.5,215.5C 236.946,215.255 232.446,215.588 228,216.5C 226.989,216.108 226.489,215.441 226.5,214.5C 224.355,215.682 224.355,217.182 226.5,219C 231.202,219.172 235.868,219.672 240.5,220.5C 236.541,221.327 232.541,221.827 228.5,222C 237.695,223.618 237.695,224.618 228.5,225C 232.486,225.499 236.486,225.666 240.5,225.5C 240.5,226.5 240.5,227.5 240.5,228.5C 236.116,228.174 231.783,228.508 227.5,229.5C 227.977,230.478 228.643,231.311 229.5,232C 233.486,232.499 237.486,232.666 241.5,232.5C 242.348,234.481 242.848,236.481 243,238.5C 242.667,238.167 242.333,237.833 242,237.5C 241.5,238.5 241,239.5 240.5,240.5C 237.045,240.961 233.878,241.961 231,243.5C 230.667,243.167 230.333,242.833 230,242.5C 229.517,243.448 229.351,244.448 229.5,245.5C 232.85,245.665 236.183,245.498 239.5,245C 240,244.5 240.5,244 241,243.5C 241.029,246.367 241.862,248.867 243.5,251C 242.027,251.71 241.36,252.876 241.5,254.5C 237.167,254.5 232.833,254.5 228.5,254.5C 228.5,253.5 228.5,252.5 228.5,251.5C 232.555,251.824 236.555,251.491 240.5,250.5C 240.291,249.914 239.957,249.414 239.5,249C 237.5,248.833 235.5,248.667 233.5,248.5C 230.045,248.712 226.878,249.046 224,249.5C 223.667,248.833 223.333,248.167 223,247.5C 222.667,251.167 222.333,254.833 222,258.5C 221.333,243.833 221.333,229.167 222,214.5C 222.652,212.277 224.152,211.11 226.5,211C 222.774,209.957 223.107,209.457 227.5,209.5C 227.5,208.5 227.5,207.5 227.5,206.5 Z"/></g>
<g><path style="opacity:1" fill="#41392a" d="M 144.5,249.5 C 144.797,252.724 144.13,255.724 142.5,258.5C 142.624,259.107 142.957,259.44 143.5,259.5C 143.5,260.167 143.167,260.5 142.5,260.5C 141.305,260.678 140.138,261.011 139,261.5C 136.797,258.038 133.63,256.704 129.5,257.5C 130.134,256.053 131.301,255.387 133,255.5C 135,256.167 137,256.833 139,257.5C 139.833,257.167 140.667,256.833 141.5,256.5C 141.766,253.655 142.766,251.322 144.5,249.5 Z"/></g>
<g><path style="opacity:0.773" fill="#666d71" d="M 108.5,252.5 C 108.33,254.848 107.997,257.182 107.5,259.5C 107.36,261.03 106.693,262.03 105.5,262.5C 105.5,262.167 105.5,261.833 105.5,261.5C 105.928,258.215 106.928,255.215 108.5,252.5 Z"/></g>
<g><path style="opacity:1" fill="#36332c" d="M 129.5,257.5 C 125.082,263.645 126.082,268.978 132.5,273.5C 133.333,276.5 134.167,279.5 135,282.5C 135.158,287.215 134.658,291.881 133.5,296.5C 132.833,296.833 132.167,297.167 131.5,297.5C 131.116,293.092 131.783,288.925 133.5,285C 130.289,277.264 126.956,269.598 123.5,262C 124.861,260.073 125.694,257.906 126,255.5C 126.816,256.823 127.983,257.489 129.5,257.5 Z"/></g>
<g><path style="opacity:0.972" fill="#efeff0" d="M 148.5,196.5 C 172.5,196.5 196.5,196.5 220.5,196.5C 220.5,223.833 220.5,251.167 220.5,278.5C 219.833,274.833 219.167,271.167 218.5,267.5C 219.299,264.57 219.632,261.57 219.5,258.5C 216.167,257.833 212.833,257.167 209.5,256.5C 209.5,255.5 209.5,254.5 209.5,253.5C 212.448,253.223 215.281,253.556 218,254.5C 219.332,252.45 219.498,250.45 218.5,248.5C 219.809,237.561 219.809,226.561 218.5,215.5C 209.021,221.464 202.688,229.798 199.5,240.5C 200.213,242.776 200.713,245.109 201,247.5C 201.388,248.428 202.055,249.095 203,249.5C 204.44,248.852 205.94,248.519 207.5,248.5C 203.748,250.749 202.581,254.082 204,258.5C 207.315,260.14 210.815,261.474 214.5,262.5C 213.652,263.991 212.319,264.658 210.5,264.5C 208.182,264.003 205.848,263.67 203.5,263.5C 203.281,264.675 203.614,265.675 204.5,266.5C 205.739,266.942 206.739,267.609 207.5,268.5C 205.5,268.167 203.5,267.833 201.5,267.5C 201.719,266.325 201.386,265.325 200.5,264.5C 199.289,265.874 198.289,267.374 197.5,269C 201.801,280.644 209.135,289.977 219.5,297C 223.284,298.947 227.284,300.28 231.5,301C 241.23,301.384 250.897,300.717 260.5,299C 267.04,295.467 272.706,290.8 277.5,285C 274.635,284.817 271.969,284.317 269.5,283.5C 306.5,283.5 343.5,283.5 380.5,283.5C 370.675,284.33 360.675,284.83 350.5,285C 349.702,291.795 345.869,294.961 339,294.5C 331.454,291.383 326.954,293.716 325.5,301.5C 328.385,301.194 331.052,301.527 333.5,302.5C 300.329,302.168 267.329,302.502 234.5,303.5C 232.887,303.944 231.72,304.944 231,306.5C 227.827,321.188 224.661,335.855 221.5,350.5C 220.778,350.918 220.278,351.584 220,352.5C 219.167,351.5 218.333,350.5 217.5,349.5C 215.324,353.892 212.324,354.559 208.5,351.5C 207.369,353.074 207.202,354.741 208,356.5C 208.388,355.572 209.055,354.905 210,354.5C 211.953,355.545 213.953,355.545 216,354.5C 218.275,354.278 219.441,355.278 219.5,357.5C 219.634,359.292 219.301,360.958 218.5,362.5C 214.833,362.5 211.167,362.5 207.5,362.5C 197.776,363.843 188.109,365.51 178.5,367.5C 186.845,364.583 195.511,362.583 204.5,361.5C 204.888,357.847 205.221,354.18 205.5,350.5C 205.547,347.705 205.047,345.039 204,342.5C 193.931,338.099 185.264,331.766 178,323.5C 177.5,319 175,316.5 170.5,316C 169.29,314.961 168.29,313.794 167.5,312.5C 171.02,314.86 174.687,315.026 178.5,313C 184.953,299.412 188.619,285.079 189.5,270C 187.573,237.907 170.573,223.073 138.5,225.5C 143.893,224.122 149.393,222.789 155,221.5C 158.243,213.351 161.743,205.351 165.5,197.5C 159.642,197.822 153.975,197.489 148.5,196.5 Z M 187.5,248.5 C 189.225,248.843 189.725,249.843 189,251.5C 187.961,250.756 187.461,249.756 187.5,248.5 Z M 218.5,248.5 C 214.648,247.733 210.982,247.733 207.5,248.5C 205.94,248.519 204.44,248.852 203,249.5C 202.055,249.095 201.388,248.428 201,247.5C 200.713,245.109 200.213,242.776 199.5,240.5C 202.688,229.798 209.021,221.464 218.5,215.5C 219.809,226.561 219.809,237.561 218.5,248.5 Z"/></g>
<g><path style="opacity:0.89" fill="#e2e2e2" d="M 218.5,248.5 C 219.498,250.45 219.332,252.45 218,254.5C 215.281,253.556 212.448,253.223 209.5,253.5C 209.5,254.5 209.5,255.5 209.5,256.5C 212.833,257.167 216.167,257.833 219.5,258.5C 219.632,261.57 219.299,264.57 218.5,267.5C 214.936,268.423 211.269,268.756 207.5,268.5C 206.739,267.609 205.739,266.942 204.5,266.5C 203.614,265.675 203.281,264.675 203.5,263.5C 205.848,263.67 208.182,264.003 210.5,264.5C 212.319,264.658 213.652,263.991 214.5,262.5C 210.815,261.474 207.315,260.14 204,258.5C 202.581,254.082 203.748,250.749 207.5,248.5C 210.982,247.733 214.648,247.733 218.5,248.5 Z"/></g>
<g><path style="opacity:1" fill="#7c542c" d="M 180.5,260.5 C 181.885,261.947 181.552,262.947 179.5,263.5C 170.848,262.986 167.348,266.986 169,275.5C 172.223,279.017 175.723,279.35 179.5,276.5C 179.5,277.833 179.5,279.167 179.5,280.5C 179.167,280.5 178.833,280.5 178.5,280.5C 175.61,279.755 172.61,279.088 169.5,278.5C 167.284,275.963 166.117,272.963 166,269.5C 163.459,274.069 159.625,275.569 154.5,274C 152.667,273.5 151.5,272.333 151,270.5C 150.814,268.1 150.314,265.766 149.5,263.5C 146.984,262.67 144.65,261.67 142.5,260.5C 143.167,260.5 143.5,260.167 143.5,259.5C 143.833,259.5 144.167,259.5 144.5,259.5C 145.912,260.533 147.578,261.199 149.5,261.5C 151.944,260.233 154.277,258.733 156.5,257C 163.27,256.425 167.103,259.592 168,266.5C 170.689,261.751 174.522,260.418 179.5,262.5C 180.298,262.043 180.631,261.376 180.5,260.5 Z"/></g>
<g><path style="opacity:1" fill="#dfb37d" d="M 155.5,258.5 C 162.827,257.329 165.994,260.329 165,267.5C 163.55,272.308 160.384,274.141 155.5,273C 150.397,268.214 150.397,263.381 155.5,258.5 Z"/></g>
<g><path style="opacity:1" fill="#4c331c" d="M 156.5,262.5 C 157.5,262.5 158.5,262.5 159.5,262.5C 159.778,264.346 159.111,265.68 157.5,266.5C 156.571,265.311 156.238,263.978 156.5,262.5 Z"/></g>
<g><path style="opacity:1" fill="#deb07e" d="M 179.5,263.5 C 181.84,267.811 181.84,272.144 179.5,276.5C 175.723,279.35 172.223,279.017 169,275.5C 167.348,266.986 170.848,262.986 179.5,263.5 Z"/></g>
<g><path style="opacity:1" fill="#543d23" d="M 174.5,267.5 C 175.552,267.351 176.552,267.517 177.5,268C 176.95,269.845 175.95,271.345 174.5,272.5C 172.07,270.963 172.07,269.296 174.5,267.5 Z"/></g>
<g><path style="opacity:1" fill="#e7b177" d="M 129.5,257.5 C 133.63,256.704 136.797,258.038 139,261.5C 140.138,261.011 141.305,260.678 142.5,260.5C 144.65,261.67 146.984,262.67 149.5,263.5C 150.314,265.766 150.814,268.1 151,270.5C 151.5,272.333 152.667,273.5 154.5,274C 159.625,275.569 163.459,274.069 166,269.5C 166.117,272.963 167.284,275.963 169.5,278.5C 168.596,279.209 168.263,280.209 168.5,281.5C 175.439,280.541 177.272,283.208 174,289.5C 170.842,291.957 168.009,294.79 165.5,298C 159.915,299.186 154.249,299.852 148.5,300C 148,300.5 147.5,301 147,301.5C 145.466,305.711 145.133,310.044 146,314.5C 146.236,316.119 147.069,317.119 148.5,317.5C 154.195,320.84 154.862,325.007 150.5,330C 149.072,330.579 147.738,330.412 146.5,329.5C 143.902,325.562 140.902,321.895 137.5,318.5C 137.67,317.178 137.337,316.011 136.5,315C 133.91,313.555 131.243,312.388 128.5,311.5C 130.763,306.71 132.43,301.71 133.5,296.5C 134.658,291.881 135.158,287.215 135,282.5C 134.167,279.5 133.333,276.5 132.5,273.5C 126.082,268.978 125.082,263.645 129.5,257.5 Z"/></g>
<g><path style="opacity:1" fill="#d1ae85" d="M 169.5,278.5 C 172.61,279.088 175.61,279.755 178.5,280.5C 175.674,295.729 166.674,302.395 151.5,300.5C 149.532,301.1 148.532,302.433 148.5,304.5C 147.235,305.514 146.569,307.014 146.5,309C 146.481,312.024 147.147,314.858 148.5,317.5C 147.069,317.119 146.236,316.119 146,314.5C 145.133,310.044 145.466,305.711 147,301.5C 147.5,301 148,300.5 148.5,300C 154.249,299.852 159.915,299.186 165.5,298C 168.009,294.79 170.842,291.957 174,289.5C 177.272,283.208 175.439,280.541 168.5,281.5C 168.263,280.209 168.596,279.209 169.5,278.5 Z"/></g>
<g><path style="opacity:0.1" fill="#fafafa" d="M 399.5,294.5 C 396.76,302.386 394.427,310.386 392.5,318.5C 391.539,316.735 391.205,314.735 391.5,312.5C 389.901,312.768 388.568,312.434 387.5,311.5C 389.652,310.923 389.985,309.756 388.5,308C 385.382,306.941 382.382,305.608 379.5,304C 383.616,303.369 386.949,301.536 389.5,298.5C 389.253,297.287 388.586,296.62 387.5,296.5C 388.91,295.172 390.076,295.505 391,297.5C 391.667,298.5 391.667,299.5 391,300.5C 387.624,302.759 387.79,304.759 391.5,306.5C 394.673,302.815 397.34,298.815 399.5,294.5 Z"/></g>
<g><path style="opacity:1" fill="#3c362a" d="M 178.5,280.5 C 178.833,280.5 179.167,280.5 179.5,280.5C 178.413,288.497 174.746,295.331 168.5,301C 162.915,302.186 157.249,302.852 151.5,303C 150.619,303.708 149.953,304.542 149.5,305.5C 148.833,305.5 148.5,305.167 148.5,304.5C 148.532,302.433 149.532,301.1 151.5,300.5C 166.674,302.395 175.674,295.729 178.5,280.5 Z"/></g>
<g><path style="opacity:0.729" fill="#e5e5e5" d="M 392.5,318.5 C 394.427,310.386 396.76,302.386 399.5,294.5C 399.203,290.755 400.703,288.089 404,286.5C 404.772,286.645 405.439,286.978 406,287.5C 406.667,289.167 406.667,290.833 406,292.5C 402.209,300.54 399.209,308.873 397,317.5C 395.653,319.466 394.153,319.799 392.5,318.5 Z"/></g>
<g><path style="opacity:1" fill="#7c8487" d="M 234.5,303.5 C 267.329,302.502 300.329,302.168 333.5,302.5C 334.492,302.328 335.158,302.662 335.5,303.5C 332.09,322.218 328.423,340.885 324.5,359.5C 324.634,361.292 324.301,362.958 323.5,364.5C 322.842,365.398 322.176,366.398 321.5,367.5C 320.498,373.508 319.498,379.508 318.5,385.5C 317.522,388.971 315.188,390.805 311.5,391C 314.868,391.543 318.201,391.376 321.5,390.5C 321.082,391.222 320.416,391.722 319.5,392C 316.518,392.498 313.518,392.665 310.5,392.5C 280.185,390.508 249.518,389.841 218.5,390.5C 217.185,389.333 216.519,387.833 216.5,386C 222.07,360.882 227.57,335.715 233,310.5C 233.795,308.099 234.962,305.932 236.5,304C 235.906,303.536 235.239,303.369 234.5,303.5 Z"/></g>
<g><path style="opacity:0.812" fill="#e4e4e4" d="M 387.5,296.5 C 388.586,296.62 389.253,297.287 389.5,298.5C 386.949,301.536 383.616,303.369 379.5,304C 382.382,305.608 385.382,306.941 388.5,308C 389.985,309.756 389.652,310.923 387.5,311.5C 367.668,306.204 367.668,301.204 387.5,296.5 Z"/></g>
<g><path style="opacity:1" fill="#deb590" d="M 133.5,296.5 C 132.43,301.71 130.763,306.71 128.5,311.5C 131.243,312.388 133.91,313.555 136.5,315C 137.337,316.011 137.67,317.178 137.5,318.5C 133.712,316.665 130.212,314.332 127,311.5C 126.333,310.5 126.333,309.5 127,308.5C 129.91,305.145 131.076,301.478 130.5,297.5C 130.833,297.5 131.167,297.5 131.5,297.5C 132.167,297.167 132.833,296.833 133.5,296.5 Z"/></g>
<g><path style="opacity:1" fill="#e1c4be" d="M 148.5,304.5 C 148.5,305.167 148.833,305.5 149.5,305.5C 149.5,306.167 149.5,306.833 149.5,307.5C 148.489,309.402 148.322,311.402 149,313.5C 151.128,317.29 153.628,320.79 156.5,324C 155.633,326.872 153.967,329.206 151.5,331C 150.667,331.167 149.833,331.333 149,331.5C 147.624,331.316 146.791,330.649 146.5,329.5C 147.738,330.412 149.072,330.579 150.5,330C 154.862,325.007 154.195,320.84 148.5,317.5C 147.147,314.858 146.481,312.024 146.5,309C 146.569,307.014 147.235,305.514 148.5,304.5 Z"/></g>
<g><path style="opacity:1" fill="#e0d6ee" d="M 115.5,292.5 C 118.437,291.515 119.771,292.849 119.5,296.5C 123.198,296.552 126.865,296.886 130.5,297.5C 131.076,301.478 129.91,305.145 127,308.5C 126.333,309.5 126.333,310.5 127,311.5C 130.212,314.332 133.712,316.665 137.5,318.5C 140.902,321.895 143.902,325.562 146.5,329.5C 146.791,330.649 147.624,331.316 149,331.5C 149.833,331.333 150.667,331.167 151.5,331C 153.967,329.206 155.633,326.872 156.5,324C 153.628,320.79 151.128,317.29 149,313.5C 148.322,311.402 148.489,309.402 149.5,307.5C 152.309,309.741 155.309,311.741 158.5,313.5C 158.069,314.293 157.735,315.127 157.5,316C 159.339,317.839 161.172,319.672 163,321.5C 163.667,324.167 163.667,326.833 163,329.5C 159.216,330.953 156.382,333.453 154.5,337C 156.235,337.651 157.902,337.485 159.5,336.5C 160.386,337.325 160.719,338.325 160.5,339.5C 158.5,339.5 156.5,339.5 154.5,339.5C 154.5,340.5 154.5,341.5 154.5,342.5C 153.391,342.557 152.391,342.89 151.5,343.5C 150.681,340.695 150.181,337.695 150,334.5C 149.501,338.152 149.335,341.818 149.5,345.5C 148.833,345.5 148.167,345.5 147.5,345.5C 147.766,341.395 147.266,337.395 146,333.5C 145.501,337.821 145.334,342.154 145.5,346.5C 143.738,346.357 142.071,346.691 140.5,347.5C 139.513,350.768 139.18,354.102 139.5,357.5C 139.533,361.887 141.866,364.054 146.5,364C 153.848,364.521 161.181,364.355 168.5,363.5C 167.686,370.862 166.686,378.195 165.5,385.5C 162.287,385.19 159.287,385.523 156.5,386.5C 156.5,388.167 156.5,389.833 156.5,391.5C 133.673,392.498 110.673,392.831 87.5,392.5C 89.8831,391.631 91.8831,390.131 93.5,388C 92.6919,387.692 92.0253,387.192 91.5,386.5C 92.5,385.833 93.5,385.167 94.5,384.5C 92.2573,383.526 89.924,383.192 87.5,383.5C 87.5,381.833 87.5,380.167 87.5,378.5C 89.5,378.5 91.5,378.5 93.5,378.5C 90.2869,377.513 86.9535,376.513 83.5,375.5C 82.2836,376.002 81.1169,376.335 80,376.5C 77.6668,375.123 75.1668,374.123 72.5,373.5C 70.9735,370.256 69.6402,366.923 68.5,363.5C 70.3535,361.309 70.6868,358.975 69.5,356.5C 71.87,352.423 73.7034,348.09 75,343.5C 78.8486,342.014 81.3486,339.347 82.5,335.5C 87.8955,333.71 91.2288,330.043 92.5,324.5C 93.897,322.394 95.7304,320.727 98,319.5C 98.7726,317.648 98.2726,316.314 96.5,315.5C 92.9016,302.428 97.9016,296.095 111.5,296.5C 106.605,298.619 101.938,301.285 97.5,304.5C 95.9392,308.575 96.6059,312.242 99.5,315.5C 104.423,315.461 109.423,315.961 114.5,317C 118.879,319.961 123.712,320.795 129,319.5C 129.5,319.167 130,318.833 130.5,318.5C 129.167,315.833 127.167,313.833 124.5,312.5C 123.626,310.253 123.292,307.92 123.5,305.5C 127.526,305.743 128.859,304.077 127.5,300.5C 124.034,299.807 120.367,299.474 116.5,299.5C 116.5,298.5 116.5,297.5 116.5,296.5C 115.5,296.5 114.5,296.5 113.5,296.5C 114.833,295.833 116.167,295.167 117.5,294.5C 117.5,293.167 116.833,292.5 115.5,292.5 Z"/></g>
<g><path style="opacity:1" fill="#d8cdec" d="M 111.5,296.5 C 112.167,296.5 112.833,296.5 113.5,296.5C 114.5,296.5 115.5,296.5 116.5,296.5C 116.5,297.5 116.5,298.5 116.5,299.5C 120.367,299.474 124.034,299.807 127.5,300.5C 128.859,304.077 127.526,305.743 123.5,305.5C 123.292,307.92 123.626,310.253 124.5,312.5C 127.167,313.833 129.167,315.833 130.5,318.5C 130,318.833 129.5,319.167 129,319.5C 123.712,320.795 118.879,319.961 114.5,317C 109.423,315.961 104.423,315.461 99.5,315.5C 96.6059,312.242 95.9392,308.575 97.5,304.5C 101.938,301.285 106.605,298.619 111.5,296.5 Z"/></g>
<g><path style="opacity:0.87" fill="#efeff0" d="M 335.5,303.5 C 336.262,309.616 335.595,315.782 333.5,322C 338.564,324.58 343.23,323.58 347.5,319C 349.167,318.333 350.833,318.333 352.5,319C 355.272,320.86 357.605,323.194 359.5,326C 366.088,327.354 368.422,331.187 366.5,337.5C 363.5,337.5 360.5,337.5 357.5,337.5C 352.645,333.788 347.311,332.955 341.5,335C 337.528,341.162 338.028,346.996 343,352.5C 343.232,351.263 343.732,350.263 344.5,349.5C 343.279,356.711 341.613,363.711 339.5,370.5C 339.789,366.894 339.456,363.394 338.5,360C 335.911,358.803 333.244,357.803 330.5,357C 328.951,355.786 327.785,354.286 327,352.5C 326.302,355.004 325.469,357.337 324.5,359.5C 328.423,340.885 332.09,322.218 335.5,303.5 Z"/></g>
<g><path style="opacity:1" fill="#e1d9ed" d="M 149.5,305.5 C 152.975,307.407 156.309,309.574 159.5,312C 161.473,312.495 163.473,312.662 165.5,312.5C 164.909,313.151 164.243,313.818 163.5,314.5C 165.894,320.287 169.061,325.62 173,330.5C 176.486,338.339 177.319,346.339 175.5,354.5C 175.5,351.5 175.5,348.5 175.5,345.5C 168.66,343.444 161.66,342.444 154.5,342.5C 154.5,341.5 154.5,340.5 154.5,339.5C 156.5,339.5 158.5,339.5 160.5,339.5C 160.719,338.325 160.386,337.325 159.5,336.5C 157.902,337.485 156.235,337.651 154.5,337C 156.382,333.453 159.216,330.953 163,329.5C 163.667,326.833 163.667,324.167 163,321.5C 161.172,319.672 159.339,317.839 157.5,316C 157.735,315.127 158.069,314.293 158.5,313.5C 155.309,311.741 152.309,309.741 149.5,307.5C 149.5,306.833 149.5,306.167 149.5,305.5 Z"/></g>
<g><path style="opacity:1" fill="#32383a" d="M 234.5,303.5 C 235.239,303.369 235.906,303.536 236.5,304C 234.962,305.932 233.795,308.099 233,310.5C 227.57,335.715 222.07,360.882 216.5,386C 216.519,387.833 217.185,389.333 218.5,390.5C 215.656,390.657 213.989,389.324 213.5,386.5C 213.5,385.5 213.5,384.5 213.5,383.5C 214.434,382.432 214.768,381.099 214.5,379.5C 214.5,378.833 214.5,378.167 214.5,377.5C 216.072,372.673 217.406,367.673 218.5,362.5C 219.301,360.958 219.634,359.292 219.5,357.5C 220.612,355.401 221.279,353.067 221.5,350.5C 224.661,335.855 227.827,321.188 231,306.5C 231.72,304.944 232.887,303.944 234.5,303.5 Z"/></g>
<g><path style="opacity:0.133" fill="#d0cfd8" d="M 357.5,337.5 C 360.5,337.5 363.5,337.5 366.5,337.5C 382.009,337.17 397.342,337.504 412.5,338.5C 412.167,338.5 411.833,338.5 411.5,338.5C 391.167,338.5 370.833,338.5 350.5,338.5C 348.938,338.733 347.605,339.4 346.5,340.5C 346.414,339.504 346.748,338.671 347.5,338C 350.817,337.502 354.15,337.335 357.5,337.5 Z"/></g>
<g><path style="opacity:1" fill="#756e7e" d="M 147.5,345.5 C 147.158,346.338 146.492,346.672 145.5,346.5C 145.334,342.154 145.501,337.821 146,333.5C 147.266,337.395 147.766,341.395 147.5,345.5 Z"/></g>
<g><path style="opacity:1" fill="#5d5867" d="M 151.5,343.5 C 151.5,343.833 151.5,344.167 151.5,344.5C 151.158,345.338 150.492,345.672 149.5,345.5C 149.335,341.818 149.501,338.152 150,334.5C 150.181,337.695 150.681,340.695 151.5,343.5 Z"/></g>
<g><path style="opacity:0.617" fill="#837f90" d="M 350.5,338.5 C 370.833,338.5 391.167,338.5 411.5,338.5C 391.671,339.332 371.671,339.832 351.5,340C 350.601,341.652 349.601,343.152 348.5,344.5C 348.253,342.142 348.919,340.142 350.5,338.5 Z"/></g>
<g><path style="opacity:1" fill="#bcb3d3" d="M 411.5,338.5 C 411.833,338.5 412.167,338.5 412.5,338.5C 414.711,340.495 415.044,342.828 413.5,345.5C 412.833,345.833 412.167,346.167 411.5,346.5C 411.579,345.07 411.246,343.736 410.5,342.5C 390.663,341.382 370.996,341.382 351.5,342.5C 350.109,350.911 348.442,359.245 346.5,367.5C 343.345,375.068 341.678,383.068 341.5,391.5C 340.833,391.5 340.167,391.5 339.5,391.5C 340.81,386.257 341.476,380.923 341.5,375.5C 342.117,375.389 342.617,375.056 343,374.5C 345.545,364.942 347.379,355.275 348.5,345.5C 348.5,345.167 348.5,344.833 348.5,344.5C 349.601,343.152 350.601,341.652 351.5,340C 371.671,339.832 391.671,339.332 411.5,338.5 Z"/></g>
<g><path style="opacity:1" fill="#656a6e" d="M 275.5,335.5 C 277.167,335.5 278.833,335.5 280.5,335.5C 279.56,341.997 282.227,345.663 288.5,346.5C 287.158,354.007 282.658,358.341 275,359.5C 269.016,357.141 267.016,352.808 269,346.5C 270.157,342.178 272.324,338.511 275.5,335.5 Z"/></g>
<g><path style="opacity:1" fill="#ebd6d0" d="M 154.5,342.5 C 161.66,342.444 168.66,343.444 175.5,345.5C 175.5,348.5 175.5,351.5 175.5,354.5C 175.802,357.059 175.468,359.393 174.5,361.5C 173.833,361.5 173.167,361.5 172.5,361.5C 173.937,356.972 174.604,352.306 174.5,347.5C 172.167,346.833 169.833,346.167 167.5,345.5C 166.167,345.5 164.833,345.5 163.5,345.5C 162.688,344.007 161.355,343.34 159.5,343.5C 156.86,344.095 154.193,344.428 151.5,344.5C 151.5,344.167 151.5,343.833 151.5,343.5C 152.391,342.89 153.391,342.557 154.5,342.5 Z"/></g>
<g><path style="opacity:1" fill="#eab377" d="M 163.5,345.5 C 164.833,345.5 166.167,345.5 167.5,345.5C 168.688,346.364 169.855,347.364 171,348.5C 171.497,352.524 171.331,356.524 170.5,360.5C 163.178,361.038 155.845,361.371 148.5,361.5C 148.167,361.5 147.833,361.5 147.5,361.5C 145.645,359.967 143.812,358.3 142,356.5C 141.161,353.86 141.661,351.527 143.5,349.5C 150.228,348.366 156.894,347.033 163.5,345.5 Z"/></g>
<g><path style="opacity:1" fill="#dfb691" d="M 163.5,345.5 C 156.894,347.033 150.228,348.366 143.5,349.5C 141.661,351.527 141.161,353.86 142,356.5C 143.812,358.3 145.645,359.967 147.5,361.5C 143.693,362.226 141.026,360.893 139.5,357.5C 139.18,354.102 139.513,350.768 140.5,347.5C 142.071,346.691 143.738,346.357 145.5,346.5C 146.492,346.672 147.158,346.338 147.5,345.5C 148.167,345.5 148.833,345.5 149.5,345.5C 150.492,345.672 151.158,345.338 151.5,344.5C 154.193,344.428 156.86,344.095 159.5,343.5C 161.355,343.34 162.688,344.007 163.5,345.5 Z"/></g>
<g><path style="opacity:1" fill="#a094b5" d="M 221.5,350.5 C 221.279,353.067 220.612,355.401 219.5,357.5C 219.441,355.278 218.275,354.278 216,354.5C 213.953,355.545 211.953,355.545 210,354.5C 209.055,354.905 208.388,355.572 208,356.5C 207.202,354.741 207.369,353.074 208.5,351.5C 212.324,354.559 215.324,353.892 217.5,349.5C 218.333,350.5 219.167,351.5 220,352.5C 220.278,351.584 220.778,350.918 221.5,350.5 Z"/></g>
<g><path style="opacity:1" fill="#494c53" d="M 350.5,338.5 C 348.919,340.142 348.253,342.142 348.5,344.5C 348.5,344.833 348.5,345.167 348.5,345.5C 345.167,355.146 342.834,365.146 341.5,375.5C 339.833,380.833 338.167,386.167 336.5,391.5C 336.868,388.467 336.202,385.8 334.5,383.5C 335.5,383.5 336.5,383.5 337.5,383.5C 337.5,382.5 337.5,381.5 337.5,380.5C 337.549,376.922 338.215,373.589 339.5,370.5C 341.613,363.711 343.279,356.711 344.5,349.5C 344.42,346.219 345.087,343.219 346.5,340.5C 347.605,339.4 348.938,338.733 350.5,338.5 Z"/></g>
<g><path style="opacity:1" fill="#e1b792" d="M 167.5,345.5 C 169.833,346.167 172.167,346.833 174.5,347.5C 174.604,352.306 173.937,356.972 172.5,361.5C 172.167,361.5 171.833,361.5 171.5,361.5C 163.705,362.782 156.038,362.782 148.5,361.5C 155.845,361.371 163.178,361.038 170.5,360.5C 171.331,356.524 171.497,352.524 171,348.5C 169.855,347.364 168.688,346.364 167.5,345.5 Z"/></g>
<g><path style="opacity:1" fill="#e4c9bd" d="M 139.5,357.5 C 141.026,360.893 143.693,362.226 147.5,361.5C 147.833,361.5 148.167,361.5 148.5,361.5C 156.038,362.782 163.705,362.782 171.5,361.5C 171.672,362.492 171.338,363.158 170.5,363.5C 169.833,363.5 169.167,363.5 168.5,363.5C 161.181,364.355 153.848,364.521 146.5,364C 141.866,364.054 139.533,361.887 139.5,357.5 Z"/></g>
<g><path style="opacity:0.653" fill="#d1c8e2" d="M 413.5,345.5 C 411.852,352.763 410.518,360.096 409.5,367.5C 410.394,373.866 411.394,380.199 412.5,386.5C 412.5,388.167 412.5,389.833 412.5,391.5C 411.5,391.5 410.5,391.5 409.5,391.5C 408.512,384.207 407.845,376.874 407.5,369.5C 407.667,366.167 407.833,362.833 408,359.5C 409.773,355.301 410.939,350.967 411.5,346.5C 412.167,346.167 412.833,345.833 413.5,345.5 Z"/></g>
<g><path style="opacity:1" fill="#85849b" d="M 348.5,345.5 C 347.379,355.275 345.545,364.942 343,374.5C 342.617,375.056 342.117,375.389 341.5,375.5C 342.834,365.146 345.167,355.146 348.5,345.5 Z"/></g>
<g><path style="opacity:0.98" fill="#e5e0ee" d="M 96.5,315.5 C 98.2726,316.314 98.7726,317.648 98,319.5C 95.7304,320.727 93.897,322.394 92.5,324.5C 91.2288,330.043 87.8955,333.71 82.5,335.5C 81.3486,339.347 78.8486,342.014 75,343.5C 73.7034,348.09 71.87,352.423 69.5,356.5C 70.6868,358.975 70.3535,361.309 68.5,363.5C 69.6402,366.923 70.9735,370.256 72.5,373.5C 75.1668,374.123 77.6668,375.123 80,376.5C 81.1169,376.335 82.2836,376.002 83.5,375.5C 86.9535,376.513 90.2869,377.513 93.5,378.5C 91.5,378.5 89.5,378.5 87.5,378.5C 87.5,380.167 87.5,381.833 87.5,383.5C 89.924,383.192 92.2573,383.526 94.5,384.5C 93.5,385.167 92.5,385.833 91.5,386.5C 92.0253,387.192 92.6919,387.692 93.5,388C 91.8831,390.131 89.8831,391.631 87.5,392.5C 79.5,392.5 71.5,392.5 63.5,392.5C 70.6476,391.508 77.9809,391.175 85.5,391.5C 85.5524,387.802 85.8857,384.135 86.5,380.5C 67.954,380.056 61.7874,371.056 68,353.5C 71.5263,345.495 76.3596,338.495 82.5,332.5C 87.1985,328.175 91.6985,323.509 96,318.5C 96.4828,317.552 96.6495,316.552 96.5,315.5 Z"/></g>
<g><path style="opacity:1" fill="#e1d7ee" d="M 171.5,361.5 C 171.833,361.5 172.167,361.5 172.5,361.5C 173.167,361.5 173.833,361.5 174.5,361.5C 174.5,363.5 174.5,365.5 174.5,367.5C 175.833,367.5 177.167,367.5 178.5,367.5C 188.109,365.51 197.776,363.843 207.5,362.5C 207.214,368.259 207.548,373.925 208.5,379.5C 204.395,380.283 201.061,382.283 198.5,385.5C 188.478,385.832 178.478,385.499 168.5,384.5C 169.098,383.205 169.598,381.872 170,380.5C 170.499,374.843 170.666,369.176 170.5,363.5C 171.338,363.158 171.672,362.492 171.5,361.5 Z"/></g>
<g><path style="opacity:1" fill="#ddbd9f" d="M 207.5,362.5 C 211.167,362.5 214.833,362.5 218.5,362.5C 217.406,367.673 216.072,372.673 214.5,377.5C 214.437,372.797 214.771,368.13 215.5,363.5C 210.052,362.932 208.052,365.432 209.5,371C 209.555,373.557 209.888,376.057 210.5,378.5C 211.689,379.429 213.022,379.762 214.5,379.5C 214.768,381.099 214.434,382.432 213.5,383.5C 212.794,381.124 211.127,379.79 208.5,379.5C 207.548,373.925 207.214,368.259 207.5,362.5 Z"/></g>
<g><path style="opacity:0.659" fill="#c2c5c7" d="M 323.5,364.5 C 322.451,371.765 320.785,378.765 318.5,385.5C 319.498,379.508 320.498,373.508 321.5,367.5C 322.176,366.398 322.842,365.398 323.5,364.5 Z"/></g>
<g><path style="opacity:1" fill="#ac9bc9" d="M 346.5,367.5 C 426.5,368.167 426.5,368.833 346.5,369.5C 346.758,376.972 347.758,384.305 349.5,391.5C 346.833,391.5 344.167,391.5 341.5,391.5C 341.678,383.068 343.345,375.068 346.5,367.5 Z"/></g>
<g><path style="opacity:1" fill="#c4b3e3" d="M 411.5,346.5 C 410.939,350.967 409.773,355.301 408,359.5C 407.833,362.833 407.667,366.167 407.5,369.5C 407.845,376.874 408.512,384.207 409.5,391.5C 410.5,391.5 411.5,391.5 412.5,391.5C 412.5,391.833 412.5,392.167 412.5,392.5C 387.994,392.831 363.661,392.498 339.5,391.5C 340.167,391.5 340.833,391.5 341.5,391.5C 344.167,391.5 346.833,391.5 349.5,391.5C 347.758,384.305 346.758,376.972 346.5,369.5C 426.5,368.833 426.5,368.167 346.5,367.5C 348.442,359.245 350.109,350.911 351.5,342.5C 370.996,341.382 390.663,341.382 410.5,342.5C 411.246,343.736 411.579,345.07 411.5,346.5 Z"/></g>
<g><path style="opacity:1" fill="#e9b379" d="M 214.5,377.5 C 214.5,378.167 214.5,378.833 214.5,379.5C 213.022,379.762 211.689,379.429 210.5,378.5C 209.888,376.057 209.555,373.557 209.5,371C 208.052,365.432 210.052,362.932 215.5,363.5C 214.771,368.13 214.437,372.797 214.5,377.5 Z"/></g>
<g><path style="opacity:1" fill="#a28fbf" d="M 182.5,372.5 C 184.367,374.461 186.701,375.794 189.5,376.5C 185.2,378.071 180.867,378.404 176.5,377.5C 180.156,378.201 182.156,376.534 182.5,372.5 Z"/></g>
<g><path style="opacity:1" fill="#b8aec6" d="M 93.5,378.5 C 104.878,377.282 115.711,374.282 126,369.5C 127.722,369.611 127.888,370.111 126.5,371C 114.73,377.98 102.064,381.814 88.5,382.5C 88.5,381.5 88.5,380.5 88.5,379.5C 90.4147,379.784 92.0813,379.451 93.5,378.5 Z"/></g>
<g><path style="opacity:1" fill="#817d91" d="M 341.5,375.5 C 341.476,380.923 340.81,386.257 339.5,391.5C 338.609,392.11 337.609,392.443 336.5,392.5C 336.5,392.167 336.5,391.833 336.5,391.5C 338.167,386.167 339.833,380.833 341.5,375.5 Z"/></g>
<g><path style="opacity:0.094" fill="#e1e1e0" d="M 337.5,380.5 C 337.5,381.5 337.5,382.5 337.5,383.5C 336.5,383.5 335.5,383.5 334.5,383.5C 333.833,383.5 333.167,383.5 332.5,383.5C 334.294,382.767 335.961,381.767 337.5,380.5 Z"/></g>
<g><path style="opacity:0.388" fill="#808080" d="M 332.5,383.5 C 333.167,383.5 333.833,383.5 334.5,383.5C 336.202,385.8 336.868,388.467 336.5,391.5C 336.167,391.5 335.833,391.5 335.5,391.5C 335.66,389.801 335.494,388.134 335,386.5C 334.329,385.748 333.496,385.414 332.5,385.5C 330.326,385.75 328.659,386.75 327.5,388.5C 327.167,389.5 326.5,390.167 325.5,390.5C 324.833,390.833 324.167,391.167 323.5,391.5C 323.158,390.662 322.492,390.328 321.5,390.5C 324.419,386.9 328.086,384.567 332.5,383.5 Z"/></g>
<g><path style="opacity:0.998" fill="#bebbc7" d="M 168.5,363.5 C 169.167,363.5 169.833,363.5 170.5,363.5C 170.666,369.176 170.499,374.843 170,380.5C 169.598,381.872 169.098,383.205 168.5,384.5C 178.478,385.499 188.478,385.832 198.5,385.5C 203.807,386.026 208.807,385.36 213.5,383.5C 213.5,384.5 213.5,385.5 213.5,386.5C 211.167,386.5 208.833,386.5 206.5,386.5C 189.833,386.5 173.167,386.5 156.5,386.5C 159.287,385.523 162.287,385.19 165.5,385.5C 166.686,378.195 167.686,370.862 168.5,363.5 Z"/></g>
<g><path style="opacity:0.008" fill="#f2f2f1" d="M 332.5,385.5 C 331.341,387.25 329.674,388.25 327.5,388.5C 328.659,386.75 330.326,385.75 332.5,385.5 Z"/></g>
<g><path style="opacity:1" fill="#7e828a" d="M 156.5,386.5 C 173.167,386.5 189.833,386.5 206.5,386.5C 206.675,388.621 206.341,390.621 205.5,392.5C 189.5,392.5 173.5,392.5 157.5,392.5C 157.5,391.833 157.167,391.5 156.5,391.5C 156.5,389.833 156.5,388.167 156.5,386.5 Z"/></g>
<g><path style="opacity:1" fill="#666773" d="M 206.5,386.5 C 208.833,386.5 211.167,386.5 213.5,386.5C 213.989,389.324 215.656,390.657 218.5,390.5C 249.518,389.841 280.185,390.508 310.5,392.5C 310.167,392.5 309.833,392.5 309.5,392.5C 274.833,392.5 240.167,392.5 205.5,392.5C 206.341,390.621 206.675,388.621 206.5,386.5 Z"/></g>
<g><path style="opacity:0.029" fill="#faf8fd" d="M 412.5,386.5 C 413.234,387.878 413.901,389.378 414.5,391C 422.011,391.171 429.345,391.671 436.5,392.5C 428.5,392.5 420.5,392.5 412.5,392.5C 412.5,392.167 412.5,391.833 412.5,391.5C 412.5,389.833 412.5,388.167 412.5,386.5 Z"/></g>
<g><path style="opacity:1" fill="#c1addc" d="M 156.5,391.5 C 157.167,391.5 157.5,391.833 157.5,392.5C 125.338,393.498 93.0043,393.832 60.5,393.5C 61.209,392.596 62.209,392.263 63.5,392.5C 71.5,392.5 79.5,392.5 87.5,392.5C 110.673,392.831 133.673,392.498 156.5,391.5 Z"/></g>
<g><path style="opacity:0.769" fill="#3a2d4b" d="M 321.5,390.5 C 322.492,390.328 323.158,390.662 323.5,391.5C 322.833,391.833 322.167,392.167 321.5,392.5C 317.399,393.791 313.399,393.791 309.5,392.5C 309.833,392.5 310.167,392.5 310.5,392.5C 313.518,392.665 316.518,392.498 319.5,392C 320.416,391.722 321.082,391.222 321.5,390.5 Z"/></g>
<g><path style="opacity:0.271" fill="#d0c2e3" d="M 325.5,390.5 C 326.694,391.777 328.36,392.444 330.5,392.5C 332.369,392.493 334.036,392.16 335.5,391.5C 335.833,391.5 336.167,391.5 336.5,391.5C 336.5,391.833 336.5,392.167 336.5,392.5C 331.5,393.833 326.5,393.833 321.5,392.5C 322.167,392.167 322.833,391.833 323.5,391.5C 324.167,391.167 324.833,390.833 325.5,390.5 Z"/></g>
<g><path style="opacity:1" fill="#9b89be" d="M 339.5,391.5 C 363.661,392.498 387.994,392.831 412.5,392.5C 412.5,392.833 412.5,393.167 412.5,393.5C 383.156,393.282 353.823,393.616 324.5,394.5C 324.167,394.5 323.833,394.5 323.5,394.5C 236.833,394.333 150.166,394.5 63.5,395C 61.4732,396.396 61.1398,398.062 62.5,400C 65.3647,400.183 68.0314,400.683 70.5,401.5C 67.5,401.5 64.5,401.5 61.5,401.5C 60.5041,401.586 59.6708,401.252 59,400.5C 57.0713,397.612 57.5713,395.279 60.5,393.5C 93.0043,393.832 125.338,393.498 157.5,392.5C 173.5,392.5 189.5,392.5 205.5,392.5C 240.167,392.5 274.833,392.5 309.5,392.5C 313.399,393.791 317.399,393.791 321.5,392.5C 326.5,393.833 331.5,393.833 336.5,392.5C 337.609,392.443 338.609,392.11 339.5,391.5 Z"/></g>
<g><path style="opacity:1" fill="#9c81cb" d="M 412.5,393.5 C 420.174,393.334 427.841,393.5 435.5,394C 439.723,394.836 440.389,396.669 437.5,399.5C 315.208,401.466 192.874,402.133 70.5,401.5C 68.0314,400.683 65.3647,400.183 62.5,400C 61.1398,398.062 61.4732,396.396 63.5,395C 150.166,394.5 236.833,394.333 323.5,394.5C 321.44,396.154 318.94,397.154 316,397.5C 295.702,396.321 275.035,395.655 254,395.5C 237.167,395.667 220.333,395.833 203.5,396C 202.234,396.309 201.067,396.809 200,397.5C 193.235,396.69 186.401,396.023 179.5,395.5C 171.169,396.792 162.836,396.792 154.5,395.5C 152.035,395.478 149.702,395.978 147.5,397C 150.264,397.532 152.93,398.366 155.5,399.5C 187.313,399.093 219.48,398.76 252,398.5C 277.596,398.296 302.929,398.963 328,400.5C 330.796,399.789 333.63,399.122 336.5,398.5C 362.125,398.755 387.958,398.755 414,398.5C 414.5,399 415,399.5 415.5,400C 419.486,400.499 423.486,400.666 427.5,400.5C 427.5,399.5 427.5,398.5 427.5,397.5C 424.946,396.614 422.279,396.614 419.5,397.5C 415.044,395.553 410.378,394.553 405.5,394.5C 385.5,395.833 365.5,395.833 345.5,394.5C 341.088,394.649 336.754,395.316 332.5,396.5C 330.723,395.397 328.889,395.397 327,396.5C 325.624,396.316 324.791,395.649 324.5,394.5C 353.823,393.616 383.156,393.282 412.5,393.5 Z"/></g>
<g><path style="opacity:1" fill="#9e80d2" d="M 323.5,394.5 C 323.833,394.5 324.167,394.5 324.5,394.5C 324.791,395.649 325.624,396.316 327,396.5C 328.889,395.397 330.723,395.397 332.5,396.5C 336.754,395.316 341.088,394.649 345.5,394.5C 365.5,395.833 385.5,395.833 405.5,394.5C 410.378,394.553 415.044,395.553 419.5,397.5C 422.279,396.614 424.946,396.614 427.5,397.5C 427.5,398.5 427.5,399.5 427.5,400.5C 423.486,400.666 419.486,400.499 415.5,400C 415,399.5 414.5,399 414,398.5C 387.958,398.755 362.125,398.755 336.5,398.5C 333.63,399.122 330.796,399.789 328,400.5C 302.929,398.963 277.596,398.296 252,398.5C 219.48,398.76 187.313,399.093 155.5,399.5C 152.93,398.366 150.264,397.532 147.5,397C 149.702,395.978 152.035,395.478 154.5,395.5C 162.836,396.792 171.169,396.792 179.5,395.5C 186.401,396.023 193.235,396.69 200,397.5C 201.067,396.809 202.234,396.309 203.5,396C 220.333,395.833 237.167,395.667 254,395.5C 275.035,395.655 295.702,396.321 316,397.5C 318.94,397.154 321.44,396.154 323.5,394.5 Z"/></g>
<g><path style="opacity:0.402" fill="#b6a9ce" d="M 412.5,393.5 C 412.5,393.167 412.5,392.833 412.5,392.5C 420.5,392.5 428.5,392.5 436.5,392.5C 441.494,392.329 443.328,394.662 442,399.5C 439.016,402.1 435.516,403.1 431.5,402.5C 431.247,406.04 430.581,409.373 429.5,412.5C 429.5,410.833 429.5,409.167 429.5,407.5C 429.5,405.167 429.5,402.833 429.5,400.5C 432.385,400.806 435.052,400.473 437.5,399.5C 440.389,396.669 439.723,394.836 435.5,394C 427.841,393.5 420.174,393.334 412.5,393.5 Z"/></g>
<g><path style="opacity:1" fill="#7e67ac" d="M 437.5,399.5 C 435.052,400.473 432.385,400.806 429.5,400.5C 429.5,402.833 429.5,405.167 429.5,407.5C 310.167,407.5 190.833,407.5 71.5,407.5C 71.1667,407.5 70.8333,407.5 70.5,407.5C 70.5,405.5 70.5,403.5 70.5,401.5C 192.874,402.133 315.208,401.466 437.5,399.5 Z"/></g>
<g><path style="opacity:1" fill="#9c82c8" d="M 71.5,407.5 C 190.833,407.5 310.167,407.5 429.5,407.5C 429.5,409.167 429.5,410.833 429.5,412.5C 429.5,413.167 429.167,413.5 428.5,413.5C 309.833,413.667 191.166,413.5 72.5,413C 71.5939,411.301 71.2606,409.467 71.5,407.5 Z"/></g>
<g><path style="opacity:0.053" fill="#f4e5fb" d="M 61.5,401.5 C 64.5,401.5 67.5,401.5 70.5,401.5C 70.5,403.5 70.5,405.5 70.5,407.5C 70.5,408.833 70.5,410.167 70.5,411.5C 69.5233,408.713 69.19,405.713 69.5,402.5C 66.6146,402.806 63.9479,402.473 61.5,401.5 Z"/></g>
<g><path style="opacity:1" fill="#9c80d1" d="M 75.5,409.5 C 188.833,409.5 302.167,409.5 415.5,409.5C 415.5,410.5 415.5,411.5 415.5,412.5C 302.5,412.667 189.5,412.5 76.5,412C 75.7476,411.329 75.4142,410.496 75.5,409.5 Z"/></g>
<g><path style="opacity:0.668" fill="#aa9bc4" d="M 70.5,407.5 C 70.8333,407.5 71.1667,407.5 71.5,407.5C 71.2606,409.467 71.5939,411.301 72.5,413C 191.166,413.5 309.833,413.667 428.5,413.5C 428.389,414.117 428.056,414.617 427.5,415C 309.5,415.667 191.5,415.667 73.5,415C 71.5743,414.578 70.5743,413.411 70.5,411.5C 70.5,410.167 70.5,408.833 70.5,407.5 Z"/></g>
</svg>
