<?xml version="1.0" encoding="UTF-8"?>
<!DOCTYPE svg PUBLIC "-//W3C//DTD SVG 1.1//EN" "http://www.w3.org/Graphics/SVG/1.1/DTD/svg11.dtd">
<svg xmlns="http://www.w3.org/2000/svg" version="1.1" width="1969px" height="2048px" style="shape-rendering:geometricPrecision; text-rendering:geometricPrecision; image-rendering:optimizeQuality; fill-rule:evenodd; clip-rule:evenodd" xmlns:xlink="http://www.w3.org/1999/xlink">
<g><path style="opacity:0.991" fill="#ff291a" d="M 401.5,-0.5 C 406.833,-0.5 412.167,-0.5 417.5,-0.5C 546.032,72.4395 674.366,145.94 802.5,220C 813.681,226.194 819.348,235.694 819.5,248.5C 819.167,518.167 819.5,787.834 820.5,1057.5C 821.107,1057.38 821.44,1057.04 821.5,1056.5C 925.779,996.727 1029.95,936.727 1134,876.5C 1134.33,736.5 1134.67,596.5 1135,456.5C 1138.19,445.305 1145.03,437.139 1155.5,432C 1279.09,361.4 1402.42,290.4 1525.5,219C 1537.67,212.099 1550,211.766 1562.5,218C 1688,290.586 1813.67,362.919 1939.5,435C 1947.89,440.72 1953.06,448.553 1955,458.5C 1955.99,607.209 1955.66,755.876 1954,904.5C 1951.77,911.728 1947.6,917.561 1941.5,922C 1820,991.581 1698.67,1061.41 1577.5,1131.5C 1576.67,1271.83 1576.17,1412.17 1576,1552.5C 1573.75,1561.17 1568.92,1568.01 1561.5,1573C 1310.17,1717.67 1058.83,1862.33 807.5,2007C 793.634,2014.61 779.967,2014.28 766.5,2006C 516.091,1861.27 265.425,1716.93 14.5,1573C 7.4329,1568.01 2.4329,1561.51 -0.5,1553.5C -0.5,1115.83 -0.5,678.167 -0.5,240.5C 2.91384,231.863 8.58051,225.029 16.5,220C 144.634,145.94 272.968,72.4395 401.5,-0.5 Z M 408.5,68.5 C 513.771,128.137 618.771,188.304 723.5,249C 618.704,308.967 514.038,369.134 409.5,429.5C 304.67,369.586 200.003,309.419 95.5,249C 199.896,188.806 304.229,128.64 408.5,68.5 Z M 1543.5,282.5 C 1648.73,342.119 1753.73,402.285 1858.5,463C 1754.07,523.3 1649.57,583.467 1545,643.5C 1440.25,583.749 1335.75,523.582 1231.5,463C 1335.73,403.059 1439.73,342.892 1543.5,282.5 Z M 755.5,1563.5 C 755.833,1684 755.5,1804.33 754.5,1924.5C 524.527,1792.18 294.527,1659.85 64.5,1527.5C 63.1667,1120.17 63.1667,712.833 64.5,305.5C 168.912,365.121 273.078,425.121 377,485.5C 377.333,768.833 377.667,1052.17 378,1335.5C 379.781,1345.56 384.947,1353.39 393.5,1359C 514.032,1427.43 634.698,1495.6 755.5,1563.5 Z M 753.5,305.5 C 754.833,436.665 755.5,568.165 755.5,700C 755.333,831.5 755.167,963 755,1094.5C 650.667,1154.83 546.333,1215.17 442,1275.5C 441.333,1012.17 441.333,748.833 442,485.5C 546.002,425.636 649.835,365.636 753.5,305.5 Z M 1198.5,518.5 C 1303.05,578.695 1407.55,639.029 1512,699.5C 1512.67,818.833 1512.67,938.167 1512,1057.5C 1407.67,997.167 1303.33,936.833 1199,876.5C 1198.5,757.167 1198.33,637.834 1198.5,518.5 Z M 1890.5,518.5 C 1891.67,637.666 1891.83,756.999 1891,876.5C 1786.5,937.086 1681.83,997.419 1577,1057.5C 1576.17,938.165 1576.33,818.832 1577.5,699.5C 1682.06,639.392 1786.39,579.059 1890.5,518.5 Z M 1165.5,932.5 C 1270.59,992.411 1375.59,1052.58 1480.5,1113C 1249.59,1244.71 1018.75,1376.54 788,1508.5C 683.743,1448.95 579.243,1389.79 474.5,1331C 704.896,1198.14 935.229,1065.31 1165.5,932.5 Z M 1511.5,1168.5 C 1512.67,1287.67 1512.83,1407 1512,1526.5C 1281.5,1659.75 1050.83,1792.75 820,1925.5C 819.167,1804.83 819.333,1684.17 820.5,1563.5C 1051.13,1432.17 1281.46,1300.5 1511.5,1168.5 Z"/></g>
<g><path style="opacity:0.008" fill="#fe0000" d="M 819.5,248.5 C 820.167,517.833 820.833,787.167 821.5,1056.5C 821.44,1057.04 821.107,1057.38 820.5,1057.5C 819.5,787.834 819.167,518.167 819.5,248.5 Z"/></g>
<g><path style="opacity:0.118" fill="#ff221a" d="M 755.5,1563.5 C 756.832,1684 756.832,1804.67 755.5,1925.5C 754.893,1925.38 754.56,1925.04 754.5,1924.5C 755.5,1804.33 755.833,1684 755.5,1563.5 Z"/></g>
</svg>
