<?xml version="1.0" encoding="UTF-8"?>
<!DOCTYPE svg PUBLIC "-//W3C//DTD SVG 1.1//EN" "http://www.w3.org/Graphics/SVG/1.1/DTD/svg11.dtd">
<svg xmlns="http://www.w3.org/2000/svg" version="1.1" width="306px" height="165px" style="shape-rendering:geometricPrecision; text-rendering:geometricPrecision; image-rendering:optimizeQuality; fill-rule:evenodd; clip-rule:evenodd" xmlns:xlink="http://www.w3.org/1999/xlink">
<g><path style="opacity:1" fill="#a3a8cd" d="M 132.5,5.5 C 133.251,4.42654 134.251,4.25988 135.5,5C 134.552,5.48278 133.552,5.64945 132.5,5.5 Z"/></g>
<g><path style="opacity:1" fill="#9599c2" d="M 176.5,5.5 C 178.889,6.05366 180.555,7.55366 181.5,10C 172.826,10.4164 164.159,10.2497 155.5,9.5C 153.811,7.67161 151.811,6.17161 149.5,5C 158.676,4.17602 167.676,4.34269 176.5,5.5 Z"/></g>
<g><path style="opacity:1" fill="#a3a8cd" d="M 121.5,6.5 C 121.897,5.47498 122.563,5.30831 123.5,6C 122.906,6.46434 122.239,6.63101 121.5,6.5 Z"/></g>
<g><path style="opacity:1" fill="#a3a8cd" d="M 107.5,7.5 C 108.833,8.16667 108.833,8.16667 107.5,7.5 Z"/></g>
<g><path style="opacity:1" fill="#a3a8cd" d="M 101.5,8.5 C 102.833,9.16667 102.833,9.16667 101.5,8.5 Z"/></g>
<g><path style="opacity:1" fill="#a3a8cd" d="M 96.5,9.5 C 97.8333,10.1667 97.8333,10.1667 96.5,9.5 Z"/></g>
<g><path style="opacity:1" fill="#a3a8cd" d="M 92.5,10.5 C 93.8333,11.1667 93.8333,11.1667 92.5,10.5 Z"/></g>
<g><path style="opacity:1" fill="#777bb3" d="M 176.5,5.5 C 184.749,5.58546 192.749,6.58546 200.5,8.5C 201.777,10.1484 202.777,11.9817 203.5,14C 209.513,15.5033 215.513,17.0033 221.5,18.5C 246.813,24.34 268.313,36.6733 286,55.5C 298.829,73.729 298.496,91.729 285,109.5C 270.504,125.007 253.004,135.841 232.5,142C 204.806,150.409 176.473,154.575 147.5,154.5C 133.452,153.695 119.452,152.362 105.5,150.5C 77.5424,146.131 52.2091,135.631 29.5,119C 13.9011,106.367 7.90106,90.2008 11.5,70.5C 15.5168,60.4683 21.5168,51.8017 29.5,44.5C 54.4841,26.3306 82.4841,15.4972 113.5,12C 127.433,10.0536 141.433,9.22028 155.5,9.5C 164.159,10.2497 172.826,10.4164 181.5,10C 180.555,7.55366 178.889,6.05366 176.5,5.5 Z M 136.5,23.5 C 143.508,23.3337 150.508,23.5004 157.5,24C 158.233,30.5482 157.566,37.0482 155.5,43.5C 162.811,44.3313 170.144,44.8313 177.5,45C 185.368,45.8719 190.534,50.0385 193,57.5C 194.476,53.6441 195.642,49.6441 196.5,45.5C 211.489,44.3338 226.489,44.1672 241.5,45C 258.243,49.4557 264.743,60.289 261,77.5C 256.236,95.9329 244.403,106.1 225.5,108C 219.509,108.499 213.509,108.666 207.5,108.5C 206.766,114.903 205.599,121.236 204,127.5C 203.25,128.126 202.416,128.626 201.5,129C 195.5,129.667 189.5,129.667 183.5,129C 182.584,128.626 181.75,128.126 181,127.5C 181.627,121.184 182.46,114.851 183.5,108.5C 177.158,108.666 170.825,108.5 164.5,108C 162.968,107.3 161.968,106.134 161.5,104.5C 164.295,91.8586 166.962,79.1919 169.5,66.5C 169.023,65.5224 168.357,64.6891 167.5,64C 162.177,63.5006 156.844,63.334 151.5,63.5C 149.324,76.881 146.824,90.2144 144,103.5C 143.727,105.329 142.893,106.829 141.5,108C 134.782,108.795 128.116,108.628 121.5,107.5C 121.167,106.167 120.833,104.833 120.5,103.5C 121.212,99.4634 121.712,95.4634 122,91.5C 114.816,101.673 104.983,107.173 92.5,108C 86.5092,108.499 80.5092,108.666 74.5,108.5C 73.5862,115.417 71.9196,122.083 69.5,128.5C 63.2182,129.626 56.8849,129.793 50.5,129C 47.6212,127.334 46.7879,124.834 48,121.5C 52.8721,96.1397 57.8721,70.8063 63,45.5C 70.5905,44.8411 78.2572,44.5078 86,44.5C 94.8913,44.3931 103.725,44.8931 112.5,46C 120.089,49.255 125.256,54.755 128,62.5C 130.625,49.405 133.458,36.405 136.5,23.5 Z M 80.5,59.5 C 88.3535,58.9683 96.0202,59.8016 103.5,62C 107.203,65.396 108.369,69.5626 107,74.5C 105.905,84.5926 100.405,90.426 90.5,92C 85.1771,92.4994 79.8437,92.666 74.5,92.5C 76.5,81.5 78.5,70.5 80.5,59.5 Z M 214.5,59.5 C 219.511,59.3341 224.511,59.5007 229.5,60C 239.623,61.0521 243.123,66.5521 240,76.5C 238.158,85.0089 232.991,90.1756 224.5,92C 218.804,92.8299 213.137,92.6632 207.5,91.5C 209.837,80.8011 212.17,70.1345 214.5,59.5 Z"/></g>
<g><path style="opacity:1" fill="#a3a8cd" d="M 84.5,12.5 C 85.8333,13.1667 85.8333,13.1667 84.5,12.5 Z"/></g>
<g><path style="opacity:1" fill="#64679d" d="M 200.5,8.5 C 208.154,9.24918 215.487,10.9158 222.5,13.5C 222.33,14.8221 222.663,15.9887 223.5,17C 222.584,17.2784 221.918,17.7784 221.5,18.5C 215.513,17.0033 209.513,15.5033 203.5,14C 202.777,11.9817 201.777,10.1484 200.5,8.5 Z"/></g>
<g><path style="opacity:1" fill="#a3a8cd" d="M 80.5,13.5 C 81.8333,14.1667 81.8333,14.1667 80.5,13.5 Z"/></g>
<g><path style="opacity:1" fill="#a3a8cd" d="M 77.5,14.5 C 78.8333,15.1667 78.8333,15.1667 77.5,14.5 Z"/></g>
<g><path style="opacity:1" fill="#a3a8cd" d="M 68.5,17.5 C 69.8333,18.1667 69.8333,18.1667 68.5,17.5 Z"/></g>
<g><path style="opacity:1" fill="#a3a8cd" d="M 65.5,18.5 C 66.8333,19.1667 66.8333,19.1667 65.5,18.5 Z"/></g>
<g><path style="opacity:1" fill="#4a4e8a" d="M 222.5,13.5 C 248.449,19.2201 270.615,31.5534 289,50.5C 307.67,77.3428 304.503,101.509 279.5,123C 251.781,142.913 220.781,154.579 186.5,158C 169.062,159.768 151.728,160.268 134.5,159.5C 139.195,158.944 143.862,157.777 148.5,156C 147.944,155.617 147.611,155.117 147.5,154.5C 176.473,154.575 204.806,150.409 232.5,142C 253.004,135.841 270.504,125.007 285,109.5C 298.496,91.729 298.829,73.729 286,55.5C 268.313,36.6733 246.813,24.34 221.5,18.5C 221.918,17.7784 222.584,17.2784 223.5,17C 222.663,15.9887 222.33,14.8221 222.5,13.5 Z"/></g>
<g><path style="opacity:1" fill="#a3a8cd" d="M 60.5,20.5 C 61.8333,21.1667 61.8333,21.1667 60.5,20.5 Z"/></g>
<g><path style="opacity:1" fill="#a3a8cd" d="M 53.5,23.5 C 54.8333,24.1667 54.8333,24.1667 53.5,23.5 Z"/></g>
<g><path style="opacity:1" fill="#a3a8cd" d="M 51.5,24.5 C 52.8333,25.1667 52.8333,25.1667 51.5,24.5 Z"/></g>
<g><path style="opacity:1" fill="#a3a8cd" d="M 49.5,25.5 C 50.8333,26.1667 50.8333,26.1667 49.5,25.5 Z"/></g>
<g><path style="opacity:1" fill="#a3a8cd" d="M 47.5,26.5 C 48.8333,27.1667 48.8333,27.1667 47.5,26.5 Z"/></g>
<g><path style="opacity:1" fill="#090909" d="M 138.5,26.5 C 144.167,26.5 149.833,26.5 155.5,26.5C 154.552,33.2419 153.218,39.9086 151.5,46.5C 161.206,47.1073 170.873,47.9407 180.5,49C 186.86,51.2064 190.193,55.7064 190.5,62.5C 188.087,76.2297 185.421,89.8964 182.5,103.5C 176.872,104.495 171.206,104.829 165.5,104.5C 168.387,90.9077 170.553,77.241 172,63.5C 171.167,62.6667 170.333,61.8333 169.5,61C 162.508,60.5004 155.508,60.3337 148.5,60.5C 146.219,75.2368 143.553,89.9035 140.5,104.5C 134.833,104.5 129.167,104.5 123.5,104.5C 128.5,78.5 133.5,52.5 138.5,26.5 Z"/></g>
<g><path style="opacity:1" fill="#a3a8cd" d="M 40.5,30.5 C 41.8333,31.1667 41.8333,31.1667 40.5,30.5 Z"/></g>
<g><path style="opacity:1" fill="#a3a8cd" d="M 31.5,36.5 C 32.8333,37.1667 32.8333,37.1667 31.5,36.5 Z"/></g>
<g><path style="opacity:1" fill="#a3a8cd" d="M 31.5,37.5 C 30.8333,38.1667 30.8333,38.1667 31.5,37.5 Z"/></g>
<g><path style="opacity:1" fill="#070707" d="M 65.5,47.5 C 79.1707,47.3334 92.8374,47.5001 106.5,48C 122.97,52.316 128.803,62.816 124,79.5C 119.63,92.5384 110.796,100.705 97.5,104C 89.1667,104.333 80.8333,104.667 72.5,105C 70.7061,111.636 69.0394,118.303 67.5,125C 61.8041,125.83 56.1375,125.663 50.5,124.5C 55.8849,98.9087 60.8849,73.242 65.5,47.5 Z M 80.5,59.5 C 78.5,70.5 76.5,81.5 74.5,92.5C 79.8437,92.666 85.1771,92.4994 90.5,92C 100.405,90.426 105.905,84.5926 107,74.5C 108.369,69.5626 107.203,65.396 103.5,62C 96.0202,59.8016 88.3535,58.9683 80.5,59.5 Z"/></g>
<g><path style="opacity:1" fill="#070707" d="M 199.5,47.5 C 214.558,47.0662 229.558,47.5662 244.5,49C 254.162,52.6538 258.828,59.6538 258.5,70C 258.153,83.7031 252.153,94.0364 240.5,101C 237.637,102.399 234.637,103.399 231.5,104C 222.833,104.333 214.167,104.667 205.5,105C 203.851,111.744 202.518,118.577 201.5,125.5C 195.833,125.5 190.167,125.5 184.5,125.5C 188.992,99.3732 193.992,73.3732 199.5,47.5 Z M 214.5,59.5 C 212.17,70.1345 209.837,80.8011 207.5,91.5C 213.137,92.6632 218.804,92.8299 224.5,92C 232.991,90.1756 238.158,85.0089 240,76.5C 243.123,66.5521 239.623,61.0521 229.5,60C 224.511,59.5007 219.511,59.3341 214.5,59.5 Z"/></g>
<g><path style="opacity:1" fill="#9498c2" d="M 30.5,38.5 C 29.6586,40.3792 29.3253,42.3792 29.5,44.5C 21.5168,51.8017 15.5168,60.4683 11.5,70.5C 10.6236,70.6309 9.95689,70.2975 9.5,69.5C 8.97244,67.6639 8.30577,65.9972 7.5,64.5C 12.8729,53.7185 20.5396,45.0518 30.5,38.5 Z"/></g>
<g><path style="opacity:1" fill="#777bb3" d="M 83.5,63.5 C 89.1764,63.3339 94.8431,63.5006 100.5,64C 102.915,65.1911 104.248,67.1911 104.5,70C 102.979,85.6598 94.3128,92.1598 78.5,89.5C 79.9113,80.7772 81.5779,72.1106 83.5,63.5 Z"/></g>
<g><path style="opacity:1" fill="#777bb3" d="M 216.5,63.5 C 222.176,63.3339 227.843,63.5006 233.5,64C 237.212,66.513 238.378,70.013 237,74.5C 236.017,83.8167 230.85,88.65 221.5,89C 218.118,89.8236 214.784,89.657 211.5,88.5C 213.295,80.1927 214.961,71.8594 216.5,63.5 Z"/></g>
<g><path style="opacity:1" fill="#7074a7" d="M 7.5,64.5 C 8.30577,65.9972 8.97244,67.6639 9.5,69.5C 9.95689,70.2975 10.6236,70.6309 11.5,70.5C 7.90106,90.2008 13.9011,106.367 29.5,119C 52.2091,135.631 77.5424,146.131 105.5,150.5C 101.241,151.861 96.9074,152.861 92.5,153.5C 69.7305,148.302 48.7305,139.136 29.5,126C 14.4004,115.134 5.73377,100.467 3.5,82C 4.06407,75.9755 5.3974,70.1422 7.5,64.5 Z"/></g>
<g><path style="opacity:1" fill="#5f6399" d="M 105.5,150.5 C 119.452,152.362 133.452,153.695 147.5,154.5C 147.611,155.117 147.944,155.617 148.5,156C 143.862,157.777 139.195,158.944 134.5,159.5C 120.352,158.482 106.352,156.482 92.5,153.5C 96.9074,152.861 101.241,151.861 105.5,150.5 Z"/></g>
</svg>
